<svg width="764" height="301" viewBox="0 0 764 301" fill="none" xmlns="http://www.w3.org/2000/svg">
<g clip-path="url(#clip0_2227_101)">
<path d="M143 10C203.751 10 253 59.2487 253 120C253 136.817 249.223 152.752 242.476 167.006C242.36 166.93 242.244 166.855 242.13 166.776C238.613 173.45 231.61 178 223.542 178C211.944 178 202.542 168.598 202.542 157C202.542 156.361 202.571 155.729 202.627 155.105C208.584 144.95 212 133.124 212 120.5C212 82.6685 181.332 52 143.5 52C105.668 52 75 82.6685 75 120.5C75 133.434 78.5854 145.53 84.8154 155.851C83.9962 154.595 83.2184 153.311 82.4834 152H81.9414C82.3329 153.603 82.542 155.277 82.542 157C82.542 168.598 73.14 178 61.542 178C54.7567 178 48.7255 174.78 44.8867 169.787C37.2857 154.838 33 137.92 33 120C33 59.2487 82.2487 10 143 10Z" fill="url(#paint0_linear_2227_101)"/>
<path d="M211.783 121C211.694 121.786 211.647 122.585 211.647 123.395C211.647 134.993 221.009 144.395 232.557 144.395C241.77 144.395 249.59 138.409 252.376 130.1C252.6 130.062 252.824 130.021 253.046 129.976C251.876 143.267 248.295 155.883 242.734 167.4C242.616 167.324 242.496 167.249 242.38 167.17C238.793 173.844 231.649 178.394 223.42 178.395C211.59 178.394 202 168.992 202 157.395C202 156.758 202.028 156.127 202.085 155.505C208.135 145.394 211.615 133.627 211.646 121.064L211.783 121Z" fill="#E8E8E8"/>
<path d="M123.684 106.142V102.371L134.793 84.8182H137.938V90.1875H136.02L128.542 102.038V102.243H144.049V106.142H123.684ZM136.174 111V104.991L136.225 103.304V84.8182H140.699V111H136.174ZM148.389 111V84.8182H153.132V96.848H153.452L163.666 84.8182H169.457L159.332 96.5668L169.547 111H163.845L156.034 99.7756L153.132 103.202V111H148.389ZM94.3011 155V128.818H104.119C106.131 128.818 107.818 129.168 109.182 129.866C110.554 130.565 111.589 131.545 112.288 132.807C112.996 134.06 113.349 135.521 113.349 137.192C113.349 138.871 112.991 140.328 112.276 141.564C111.568 142.791 110.524 143.741 109.143 144.415C107.763 145.08 106.067 145.412 104.055 145.412H97.0625V141.474H103.416C104.592 141.474 105.555 141.312 106.305 140.989C107.055 140.656 107.609 140.175 107.967 139.544C108.334 138.905 108.517 138.121 108.517 137.192C108.517 136.263 108.334 135.47 107.967 134.814C107.601 134.149 107.043 133.646 106.293 133.305C105.543 132.956 104.575 132.781 103.391 132.781H99.044V155H94.3011ZM107.827 143.136L114.308 155H109.016L102.649 143.136H107.827ZM125.923 155.384C123.954 155.384 122.254 154.974 120.822 154.156C119.398 153.33 118.303 152.162 117.536 150.653C116.769 149.136 116.386 147.351 116.386 145.297C116.386 143.277 116.769 141.504 117.536 139.979C118.312 138.445 119.394 137.251 120.783 136.399C122.173 135.538 123.805 135.108 125.68 135.108C126.89 135.108 128.032 135.304 129.106 135.696C130.188 136.08 131.143 136.676 131.969 137.486C132.805 138.295 133.461 139.327 133.938 140.58C134.415 141.824 134.654 143.307 134.654 145.028V146.447H118.559V143.328H130.218C130.21 142.442 130.018 141.653 129.643 140.963C129.268 140.264 128.744 139.714 128.07 139.314C127.406 138.913 126.63 138.713 125.744 138.713C124.798 138.713 123.967 138.943 123.251 139.403C122.535 139.855 121.977 140.452 121.576 141.193C121.184 141.926 120.984 142.732 120.975 143.609V146.332C120.975 147.474 121.184 148.455 121.602 149.273C122.019 150.082 122.603 150.705 123.353 151.139C124.103 151.565 124.981 151.778 125.987 151.778C126.66 151.778 127.269 151.685 127.815 151.497C128.36 151.301 128.833 151.016 129.234 150.641C129.634 150.266 129.937 149.801 130.141 149.247L134.462 149.733C134.19 150.875 133.67 151.872 132.903 152.724C132.144 153.568 131.173 154.224 129.988 154.693C128.803 155.153 127.448 155.384 125.923 155.384ZM144.22 155.396C142.975 155.396 141.855 155.175 140.858 154.732C139.869 154.28 139.085 153.615 138.505 152.737C137.934 151.859 137.649 150.777 137.649 149.49C137.649 148.382 137.853 147.466 138.262 146.741C138.672 146.017 139.23 145.438 139.937 145.003C140.645 144.568 141.441 144.24 142.328 144.018C143.223 143.788 144.147 143.622 145.102 143.52C146.252 143.401 147.186 143.294 147.902 143.2C148.618 143.098 149.137 142.945 149.461 142.74C149.794 142.527 149.96 142.199 149.96 141.756V141.679C149.96 140.716 149.674 139.97 149.103 139.442C148.532 138.913 147.71 138.649 146.636 138.649C145.502 138.649 144.603 138.896 143.939 139.391C143.282 139.885 142.839 140.469 142.609 141.142L138.288 140.528C138.629 139.335 139.191 138.338 139.975 137.537C140.76 136.727 141.718 136.122 142.852 135.722C143.985 135.312 145.238 135.108 146.61 135.108C147.556 135.108 148.498 135.219 149.436 135.44C150.373 135.662 151.23 136.028 152.005 136.54C152.781 137.043 153.403 137.729 153.872 138.598C154.349 139.467 154.588 140.554 154.588 141.858V155H150.139V152.303H149.985C149.704 152.848 149.308 153.359 148.797 153.837C148.294 154.305 147.659 154.685 146.892 154.974C146.133 155.256 145.243 155.396 144.22 155.396ZM145.422 151.996C146.35 151.996 147.156 151.812 147.838 151.446C148.52 151.071 149.044 150.577 149.41 149.963C149.785 149.349 149.973 148.68 149.973 147.956V145.642C149.828 145.761 149.581 145.872 149.231 145.974C148.89 146.077 148.507 146.166 148.081 146.243C147.654 146.32 147.233 146.388 146.815 146.447C146.397 146.507 146.035 146.558 145.728 146.601C145.038 146.695 144.42 146.848 143.875 147.061C143.329 147.274 142.899 147.572 142.583 147.956C142.268 148.331 142.11 148.817 142.11 149.413C142.11 150.266 142.422 150.909 143.044 151.344C143.666 151.778 144.458 151.996 145.422 151.996ZM166.528 155.345C164.985 155.345 163.605 154.949 162.386 154.156C161.167 153.364 160.204 152.213 159.497 150.705C158.789 149.196 158.436 147.364 158.436 145.207C158.436 143.026 158.794 141.185 159.51 139.685C160.234 138.176 161.21 137.038 162.437 136.271C163.664 135.496 165.032 135.108 166.541 135.108C167.691 135.108 168.637 135.304 169.379 135.696C170.12 136.08 170.708 136.544 171.143 137.089C171.578 137.626 171.914 138.134 172.153 138.611H172.345V128.818H176.985V155H172.434V151.906H172.153C171.914 152.384 171.569 152.891 171.118 153.428C170.666 153.956 170.069 154.408 169.328 154.783C168.586 155.158 167.653 155.345 166.528 155.345ZM167.819 151.548C168.799 151.548 169.635 151.284 170.325 150.756C171.015 150.219 171.539 149.473 171.897 148.518C172.255 147.564 172.434 146.452 172.434 145.182C172.434 143.912 172.255 142.808 171.897 141.871C171.548 140.933 171.028 140.205 170.338 139.685C169.656 139.165 168.816 138.905 167.819 138.905C166.788 138.905 165.927 139.173 165.237 139.71C164.547 140.247 164.027 140.989 163.677 141.935C163.328 142.881 163.153 143.963 163.153 145.182C163.153 146.409 163.328 147.504 163.677 148.467C164.035 149.422 164.559 150.176 165.25 150.73C165.949 151.276 166.805 151.548 167.819 151.548ZM184.793 162.364C184.163 162.364 183.579 162.313 183.042 162.21C182.513 162.116 182.092 162.006 181.776 161.878L182.85 158.273C183.523 158.469 184.124 158.563 184.653 158.554C185.181 158.545 185.646 158.379 186.046 158.055C186.455 157.74 186.8 157.212 187.082 156.47L187.478 155.409L180.357 135.364H185.266L189.792 150.193H189.996L194.535 135.364H199.457L191.594 157.378C191.228 158.418 190.742 159.308 190.137 160.05C189.532 160.8 188.79 161.371 187.913 161.763C187.043 162.163 186.004 162.364 184.793 162.364Z" fill="black"/>
<path d="M27.2307 231V212.091H30.0837V220.308H39.5106V212.091H42.3728V231H39.5106V222.755H30.0837V231H27.2307ZM46.306 231V216.818H49.0667V231H46.306ZM47.7002 214.63C47.2201 214.63 46.8077 214.47 46.463 214.15C46.1244 213.824 45.9552 213.436 45.9552 212.987C45.9552 212.531 46.1244 212.143 46.463 211.823C46.8077 211.497 47.2201 211.334 47.7002 211.334C48.1803 211.334 48.5896 211.497 48.9282 211.823C49.2729 212.143 49.4452 212.531 49.4452 212.987C49.4452 213.436 49.2729 213.824 48.9282 214.15C48.5896 214.47 48.1803 214.63 47.7002 214.63ZM58.7267 236.614C57.6002 236.614 56.6308 236.466 55.8183 236.17C55.0119 235.875 54.3533 235.484 53.8424 234.998C53.3315 234.512 52.9499 233.979 52.6975 233.401L55.0704 232.422C55.2366 232.693 55.4582 232.979 55.7352 233.281C56.0183 233.588 56.3999 233.85 56.8801 234.065C57.3663 234.281 57.9911 234.388 58.7544 234.388C59.8008 234.388 60.6656 234.133 61.3488 233.622C62.032 233.117 62.3737 232.311 62.3737 231.203V228.415H62.1982C62.032 228.716 61.792 229.052 61.4781 229.421C61.1703 229.79 60.7456 230.111 60.2039 230.381C59.6623 230.652 58.9575 230.788 58.0896 230.788C56.9693 230.788 55.9598 230.526 55.0612 230.003C54.1686 229.473 53.4608 228.695 52.9376 227.667C52.4205 226.633 52.162 225.362 52.162 223.854C52.162 222.346 52.4175 221.053 52.9284 219.976C53.4454 218.899 54.1533 218.074 55.0519 217.501C55.9506 216.923 56.9693 216.634 58.108 216.634C58.9883 216.634 59.6992 216.781 60.2409 217.077C60.7825 217.366 61.2042 217.705 61.5058 218.092C61.8135 218.48 62.0505 218.822 62.2167 219.117H62.4198V216.818H65.1251V231.314C65.1251 232.533 64.8419 233.533 64.2757 234.315C63.7094 235.096 62.943 235.675 61.9767 236.05C61.0164 236.426 59.9331 236.614 58.7267 236.614ZM58.699 228.498C59.493 228.498 60.1639 228.313 60.7117 227.944C61.2657 227.568 61.6843 227.033 61.9674 226.337C62.2567 225.636 62.4014 224.795 62.4014 223.817C62.4014 222.863 62.2598 222.022 61.9767 221.296C61.6935 220.57 61.278 220.004 60.7302 219.597C60.1824 219.185 59.5053 218.979 58.699 218.979C57.868 218.979 57.1755 219.194 56.6215 219.625C56.0676 220.05 55.649 220.628 55.3659 221.361C55.0889 222.093 54.9504 222.912 54.9504 223.817C54.9504 224.746 55.0919 225.562 55.3751 226.263C55.6582 226.965 56.0768 227.513 56.6308 227.907C57.1909 228.301 57.8803 228.498 58.699 228.498ZM71.5882 222.58V231H68.8275V212.091H71.5512V219.126H71.7267C72.059 218.363 72.5669 217.757 73.2501 217.308C73.9333 216.858 74.8258 216.634 75.9276 216.634C76.9002 216.634 77.7496 216.834 78.4759 217.234C79.2084 217.634 79.7747 218.231 80.1748 219.025C80.5811 219.813 80.7842 220.798 80.7842 221.979V231H78.0235V222.312C78.0235 221.272 77.7558 220.465 77.2203 219.893C76.6847 219.314 75.94 219.025 74.9859 219.025C74.3334 219.025 73.7487 219.163 73.2316 219.44C72.7207 219.717 72.3176 220.124 72.0221 220.659C71.7328 221.188 71.5882 221.829 71.5882 222.58ZM92.824 221.813V224.205H84.4404V221.813H92.824ZM101.812 231.277C100.667 231.277 99.6456 230.985 98.7469 230.4C97.8544 229.809 97.1527 228.969 96.6418 227.879C96.137 226.784 95.8847 225.469 95.8847 223.937C95.8847 222.404 96.1401 221.093 96.651 220.004C97.1681 218.914 97.8759 218.08 98.7746 217.501C99.6733 216.923 100.692 216.634 101.831 216.634C102.711 216.634 103.419 216.781 103.954 217.077C104.496 217.366 104.915 217.705 105.21 218.092C105.512 218.48 105.745 218.822 105.912 219.117H106.078V212.091H108.839V231H106.142V228.793H105.912C105.745 229.095 105.505 229.44 105.191 229.827C104.884 230.215 104.459 230.554 103.917 230.843C103.376 231.132 102.674 231.277 101.812 231.277ZM102.422 228.923C103.216 228.923 103.887 228.713 104.434 228.295C104.988 227.87 105.407 227.282 105.69 226.531C105.979 225.78 106.124 224.906 106.124 223.909C106.124 222.924 105.982 222.062 105.699 221.324C105.416 220.585 105.001 220.01 104.453 219.597C103.905 219.185 103.228 218.979 102.422 218.979C101.591 218.979 100.898 219.194 100.344 219.625C99.7902 220.056 99.3717 220.644 99.0885 221.388C98.8115 222.133 98.673 222.973 98.673 223.909C98.673 224.857 98.8146 225.71 99.0977 226.467C99.3809 227.224 99.7994 227.824 100.353 228.267C100.914 228.704 101.603 228.923 102.422 228.923ZM118.891 231.286C117.494 231.286 116.29 230.988 115.281 230.391C114.277 229.787 113.502 228.941 112.954 227.852C112.412 226.756 112.142 225.473 112.142 224.001C112.142 222.549 112.412 221.268 112.954 220.161C113.502 219.053 114.265 218.188 115.244 217.566C116.229 216.944 117.38 216.634 118.697 216.634C119.497 216.634 120.273 216.766 121.024 217.031C121.775 217.295 122.449 217.711 123.046 218.277C123.643 218.843 124.114 219.579 124.458 220.484C124.803 221.382 124.975 222.475 124.975 223.761V224.74H113.702V222.672H122.27C122.27 221.946 122.122 221.302 121.827 220.742C121.532 220.176 121.116 219.73 120.581 219.403C120.051 219.077 119.429 218.914 118.715 218.914C117.94 218.914 117.263 219.105 116.684 219.487C116.112 219.862 115.669 220.354 115.355 220.964C115.047 221.567 114.893 222.223 114.893 222.93V224.546C114.893 225.494 115.059 226.3 115.392 226.965C115.73 227.63 116.201 228.138 116.804 228.489C117.407 228.833 118.112 229.006 118.919 229.006C119.442 229.006 119.919 228.932 120.35 228.784C120.781 228.63 121.153 228.402 121.467 228.101C121.781 227.799 122.021 227.427 122.187 226.984L124.8 227.455C124.591 228.224 124.215 228.898 123.674 229.477C123.138 230.049 122.464 230.495 121.652 230.815C120.845 231.129 119.925 231.286 118.891 231.286ZM134.788 216.818V219.034H126.774V216.818H134.788ZM128.971 231V215.175C128.971 214.288 129.165 213.553 129.553 212.968C129.94 212.377 130.454 211.937 131.095 211.648C131.735 211.352 132.43 211.205 133.181 211.205C133.735 211.205 134.209 211.251 134.603 211.343C134.997 211.429 135.289 211.509 135.48 211.583L134.834 213.817C134.705 213.781 134.538 213.737 134.335 213.688C134.132 213.633 133.886 213.605 133.597 213.605C132.926 213.605 132.446 213.771 132.156 214.104C131.873 214.436 131.732 214.916 131.732 215.544V231H128.971ZM155.144 220.281L152.642 220.724C152.537 220.404 152.371 220.099 152.143 219.81C151.922 219.52 151.62 219.283 151.239 219.099C150.857 218.914 150.38 218.822 149.807 218.822C149.026 218.822 148.373 218.997 147.85 219.348C147.327 219.693 147.065 220.139 147.065 220.687C147.065 221.161 147.241 221.542 147.592 221.832C147.942 222.121 148.509 222.358 149.29 222.543L151.543 223.06C152.848 223.361 153.821 223.826 154.461 224.454C155.101 225.082 155.421 225.897 155.421 226.901C155.421 227.75 155.175 228.507 154.682 229.172C154.196 229.83 153.516 230.348 152.642 230.723C151.774 231.098 150.768 231.286 149.623 231.286C148.035 231.286 146.739 230.948 145.736 230.271C144.732 229.587 144.117 228.618 143.889 227.362L146.557 226.956C146.724 227.652 147.065 228.178 147.582 228.535C148.099 228.886 148.773 229.061 149.604 229.061C150.509 229.061 151.232 228.873 151.774 228.498C152.316 228.116 152.587 227.652 152.587 227.104C152.587 226.661 152.42 226.288 152.088 225.987C151.762 225.685 151.26 225.457 150.583 225.303L148.182 224.777C146.859 224.475 145.88 223.995 145.246 223.337C144.619 222.678 144.305 221.844 144.305 220.835C144.305 219.997 144.539 219.265 145.006 218.637C145.474 218.009 146.12 217.52 146.945 217.169C147.77 216.812 148.715 216.634 149.78 216.634C151.312 216.634 152.519 216.966 153.399 217.631C154.279 218.289 154.861 219.173 155.144 220.281ZM165.076 216.818V219.034H157.33V216.818H165.076ZM159.407 213.42H162.168V226.836C162.168 227.371 162.248 227.775 162.408 228.045C162.568 228.31 162.774 228.492 163.027 228.59C163.285 228.683 163.565 228.729 163.867 228.729C164.089 228.729 164.282 228.713 164.449 228.683C164.615 228.652 164.744 228.627 164.836 228.609L165.335 230.889C165.175 230.951 164.947 231.012 164.652 231.074C164.356 231.142 163.987 231.179 163.544 231.185C162.817 231.197 162.14 231.068 161.513 230.797C160.885 230.526 160.377 230.107 159.989 229.541C159.601 228.975 159.407 228.264 159.407 227.408V213.42ZM168.13 231V216.818H170.799V219.071H170.946C171.205 218.308 171.66 217.708 172.313 217.271C172.971 216.827 173.716 216.606 174.547 216.606C174.719 216.606 174.923 216.612 175.157 216.624C175.397 216.637 175.584 216.652 175.72 216.67V219.311C175.609 219.28 175.412 219.246 175.129 219.21C174.846 219.166 174.563 219.145 174.279 219.145C173.627 219.145 173.045 219.283 172.534 219.56C172.03 219.831 171.63 220.21 171.334 220.696C171.039 221.176 170.891 221.724 170.891 222.339V231H168.13ZM183.713 231.286C182.316 231.286 181.113 230.988 180.103 230.391C179.1 229.787 178.324 228.941 177.776 227.852C177.235 226.756 176.964 225.473 176.964 224.001C176.964 222.549 177.235 221.268 177.776 220.161C178.324 219.053 179.087 218.188 180.066 217.566C181.051 216.944 182.202 216.634 183.519 216.634C184.319 216.634 185.095 216.766 185.846 217.031C186.597 217.295 187.271 217.711 187.868 218.277C188.465 218.843 188.936 219.579 189.281 220.484C189.625 221.382 189.798 222.475 189.798 223.761V224.74H178.524V222.672H187.092C187.092 221.946 186.945 221.302 186.649 220.742C186.354 220.176 185.938 219.73 185.403 219.403C184.873 219.077 184.252 218.914 183.538 218.914C182.762 218.914 182.085 219.105 181.506 219.487C180.934 219.862 180.491 220.354 180.177 220.964C179.869 221.567 179.715 222.223 179.715 222.93V224.546C179.715 225.494 179.881 226.3 180.214 226.965C180.552 227.63 181.023 228.138 181.627 228.489C182.23 228.833 182.935 229.006 183.741 229.006C184.264 229.006 184.741 228.932 185.172 228.784C185.603 228.63 185.975 228.402 186.289 228.101C186.603 227.799 186.843 227.427 187.009 226.984L189.622 227.455C189.413 228.224 189.037 228.898 188.496 229.477C187.96 230.049 187.286 230.495 186.474 230.815C185.667 231.129 184.747 231.286 183.713 231.286ZM196.988 231.314C196.089 231.314 195.277 231.148 194.55 230.815C193.824 230.477 193.248 229.987 192.824 229.347C192.405 228.707 192.196 227.922 192.196 226.993C192.196 226.193 192.35 225.534 192.658 225.017C192.965 224.5 193.381 224.091 193.904 223.789C194.427 223.487 195.012 223.26 195.658 223.106C196.305 222.952 196.963 222.835 197.634 222.755C198.484 222.656 199.173 222.576 199.702 222.515C200.232 222.447 200.616 222.339 200.856 222.192C201.097 222.044 201.217 221.804 201.217 221.472V221.407C201.217 220.601 200.989 219.976 200.533 219.533C200.084 219.089 199.413 218.868 198.521 218.868C197.591 218.868 196.859 219.074 196.323 219.487C195.794 219.893 195.427 220.345 195.224 220.844L192.63 220.253C192.938 219.391 193.387 218.696 193.978 218.166C194.575 217.631 195.261 217.243 196.037 217.003C196.812 216.757 197.628 216.634 198.484 216.634C199.05 216.634 199.65 216.701 200.284 216.837C200.924 216.966 201.521 217.206 202.075 217.557C202.635 217.908 203.094 218.409 203.451 219.062C203.808 219.708 203.986 220.548 203.986 221.582V231H201.29V229.061H201.18C201.001 229.418 200.733 229.769 200.376 230.114C200.019 230.458 199.561 230.745 199.001 230.972C198.44 231.2 197.77 231.314 196.988 231.314ZM197.588 229.098C198.351 229.098 199.004 228.947 199.545 228.646C200.093 228.344 200.509 227.95 200.792 227.464C201.081 226.971 201.226 226.445 201.226 225.885V224.057C201.127 224.155 200.936 224.248 200.653 224.334C200.376 224.414 200.059 224.485 199.702 224.546C199.345 224.602 198.998 224.654 198.659 224.703C198.32 224.746 198.037 224.783 197.81 224.814C197.274 224.882 196.785 224.996 196.342 225.156C195.905 225.316 195.554 225.546 195.289 225.848C195.03 226.143 194.901 226.537 194.901 227.03C194.901 227.713 195.154 228.23 195.658 228.581C196.163 228.926 196.806 229.098 197.588 229.098ZM207.663 231V216.818H210.313V219.126H210.489C210.784 218.345 211.267 217.735 211.938 217.298C212.609 216.855 213.412 216.634 214.348 216.634C215.296 216.634 216.09 216.855 216.73 217.298C217.377 217.741 217.854 218.351 218.161 219.126H218.309C218.648 218.369 219.186 217.766 219.925 217.317C220.663 216.861 221.544 216.634 222.565 216.634C223.852 216.634 224.901 217.037 225.714 217.843C226.533 218.649 226.942 219.865 226.942 221.49V231H224.181V221.749C224.181 220.788 223.92 220.093 223.396 219.662C222.873 219.231 222.248 219.016 221.522 219.016C220.623 219.016 219.925 219.293 219.426 219.847C218.928 220.394 218.678 221.099 218.678 221.961V231H215.927V221.573C215.927 220.804 215.687 220.185 215.207 219.717C214.727 219.25 214.102 219.016 213.332 219.016C212.809 219.016 212.326 219.154 211.883 219.431C211.446 219.702 211.092 220.08 210.821 220.567C210.556 221.053 210.424 221.616 210.424 222.256V231H207.663ZM230.642 231V216.818H233.403V231H230.642ZM232.036 214.63C231.556 214.63 231.144 214.47 230.799 214.15C230.46 213.824 230.291 213.436 230.291 212.987C230.291 212.531 230.46 212.143 230.799 211.823C231.144 211.497 231.556 211.334 232.036 211.334C232.516 211.334 232.926 211.497 233.264 211.823C233.609 212.143 233.781 212.531 233.781 212.987C233.781 213.436 233.609 213.824 233.264 214.15C232.926 214.47 232.516 214.63 232.036 214.63ZM239.877 222.58V231H237.117V216.818H239.766V219.126H239.942C240.268 218.375 240.779 217.772 241.475 217.317C242.176 216.861 243.06 216.634 244.124 216.634C245.091 216.634 245.937 216.837 246.663 217.243C247.39 217.643 247.953 218.24 248.353 219.034C248.753 219.828 248.953 220.81 248.953 221.979V231H246.193V222.312C246.193 221.284 245.925 220.481 245.389 219.902C244.854 219.317 244.118 219.025 243.183 219.025C242.542 219.025 241.973 219.163 241.475 219.44C240.982 219.717 240.591 220.124 240.302 220.659C240.019 221.188 239.877 221.829 239.877 222.58ZM258.602 236.614C257.475 236.614 256.506 236.466 255.693 236.17C254.887 235.875 254.228 235.484 253.717 234.998C253.207 234.512 252.825 233.979 252.573 233.401L254.945 232.422C255.112 232.693 255.333 232.979 255.61 233.281C255.893 233.588 256.275 233.85 256.755 234.065C257.241 234.281 257.866 234.388 258.629 234.388C259.676 234.388 260.541 234.133 261.224 233.622C261.907 233.117 262.249 232.311 262.249 231.203V228.415H262.073C261.907 228.716 261.667 229.052 261.353 229.421C261.045 229.79 260.621 230.111 260.079 230.381C259.537 230.652 258.832 230.788 257.965 230.788C256.844 230.788 255.835 230.526 254.936 230.003C254.044 229.473 253.336 228.695 252.813 227.667C252.296 226.633 252.037 225.362 252.037 223.854C252.037 222.346 252.292 221.053 252.803 219.976C253.32 218.899 254.028 218.074 254.927 217.501C255.826 216.923 256.844 216.634 257.983 216.634C258.863 216.634 259.574 216.781 260.116 217.077C260.658 217.366 261.079 217.705 261.381 218.092C261.689 218.48 261.926 218.822 262.092 219.117H262.295V216.818H265V231.314C265 232.533 264.717 233.533 264.151 234.315C263.584 235.096 262.818 235.675 261.852 236.05C260.891 236.426 259.808 236.614 258.602 236.614ZM258.574 228.498C259.368 228.498 260.039 228.313 260.587 227.944C261.141 227.568 261.559 227.033 261.842 226.337C262.132 225.636 262.276 224.795 262.276 223.817C262.276 222.863 262.135 222.022 261.852 221.296C261.569 220.57 261.153 220.004 260.605 219.597C260.057 219.185 259.38 218.979 258.574 218.979C257.743 218.979 257.051 219.194 256.497 219.625C255.943 220.05 255.524 220.628 255.241 221.361C254.964 222.093 254.825 222.912 254.825 223.817C254.825 224.746 254.967 225.562 255.25 226.263C255.533 226.965 255.952 227.513 256.506 227.907C257.066 228.301 257.755 228.498 258.574 228.498ZM33.4722 262.314C32.5735 262.314 31.761 262.148 31.0347 261.815C30.3084 261.477 29.7329 260.987 29.3081 260.347C28.8896 259.707 28.6803 258.922 28.6803 257.993C28.6803 257.193 28.8342 256.534 29.142 256.017C29.4497 255.5 29.8652 255.091 30.3884 254.789C30.9116 254.487 31.4964 254.26 32.1427 254.106C32.789 253.952 33.4476 253.835 34.1185 253.755C34.968 253.656 35.6573 253.576 36.1867 253.515C36.7161 253.447 37.1008 253.339 37.3408 253.192C37.5809 253.044 37.7009 252.804 37.7009 252.472V252.407C37.7009 251.601 37.4732 250.976 37.0177 250.533C36.5683 250.089 35.8974 249.868 35.0049 249.868C34.0754 249.868 33.343 250.074 32.8074 250.487C32.2781 250.893 31.9118 251.345 31.7087 251.844L29.1143 251.253C29.422 250.391 29.8714 249.696 30.4623 249.166C31.0593 248.631 31.7457 248.243 32.5212 248.003C33.2968 247.757 34.1124 247.634 34.968 247.634C35.5342 247.634 36.1344 247.701 36.7684 247.837C37.4085 247.966 38.0056 248.206 38.5596 248.557C39.1197 248.908 39.5783 249.409 39.9353 250.062C40.2923 250.708 40.4708 251.548 40.4708 252.582V262H37.7748V260.061H37.664C37.4855 260.418 37.2177 260.769 36.8607 261.114C36.5037 261.458 36.0451 261.745 35.485 261.972C34.9249 262.2 34.2539 262.314 33.4722 262.314ZM34.0724 260.098C34.8356 260.098 35.4881 259.947 36.0297 259.646C36.5776 259.344 36.993 258.95 37.2762 258.464C37.5655 257.971 37.7101 257.445 37.7101 256.885V255.057C37.6117 255.155 37.4208 255.248 37.1377 255.334C36.8607 255.414 36.5437 255.485 36.1867 255.546C35.8297 255.602 35.4819 255.654 35.1434 255.703C34.8048 255.746 34.5217 255.783 34.2939 255.814C33.7584 255.882 33.2691 255.996 32.8259 256.156C32.3889 256.316 32.038 256.546 31.7733 256.848C31.5148 257.143 31.3856 257.537 31.3856 258.03C31.3856 258.713 31.6379 259.23 32.1427 259.581C32.6474 259.926 33.2906 260.098 34.0724 260.098ZM46.9085 253.58V262H44.1478V247.818H46.7977V250.126H46.9731C47.2993 249.375 47.8102 248.772 48.5058 248.317C49.2075 247.861 50.0908 247.634 51.1556 247.634C52.122 247.634 52.9684 247.837 53.6947 248.243C54.421 248.643 54.9842 249.24 55.3843 250.034C55.7844 250.828 55.9845 251.81 55.9845 252.979V262H53.2238V253.312C53.2238 252.284 52.9561 251.481 52.4205 250.902C51.885 250.317 51.1495 250.025 50.2139 250.025C49.5737 250.025 49.0044 250.163 48.5058 250.44C48.0133 250.717 47.6225 251.124 47.3332 251.659C47.05 252.188 46.9085 252.829 46.9085 253.58ZM64.9958 262.277C63.8509 262.277 62.8292 261.985 61.9305 261.4C61.038 260.809 60.3363 259.969 59.8254 258.879C59.3206 257.784 59.0683 256.469 59.0683 254.937C59.0683 253.404 59.3237 252.093 59.8346 251.004C60.3517 249.914 61.0595 249.08 61.9582 248.501C62.8569 247.923 63.8756 247.634 65.0143 247.634C65.8945 247.634 66.6024 247.781 67.1379 248.077C67.6795 248.366 68.0981 248.705 68.3936 249.092C68.6952 249.48 68.9291 249.822 69.0953 250.117H69.2615V243.091H72.0221V262H69.3261V259.793H69.0953C68.9291 260.095 68.689 260.44 68.3751 260.827C68.0673 261.215 67.6426 261.554 67.1009 261.843C66.5593 262.132 65.8576 262.277 64.9958 262.277ZM65.6052 259.923C66.3992 259.923 67.0702 259.713 67.618 259.295C68.172 258.87 68.5905 258.282 68.8737 257.531C69.163 256.78 69.3076 255.906 69.3076 254.909C69.3076 253.924 69.166 253.062 68.8829 252.324C68.5998 251.585 68.1843 251.01 67.6365 250.597C67.0886 250.185 66.4115 249.979 65.6052 249.979C64.7742 249.979 64.0818 250.194 63.5278 250.625C62.9738 251.056 62.5552 251.644 62.2721 252.388C61.9951 253.133 61.8566 253.973 61.8566 254.909C61.8566 255.857 61.9982 256.71 62.2813 257.467C62.5645 258.224 62.983 258.824 63.537 259.267C64.0972 259.704 64.7865 259.923 65.6052 259.923ZM93.4703 251.281L90.9681 251.724C90.8635 251.404 90.6973 251.099 90.4695 250.81C90.248 250.52 89.9463 250.283 89.5647 250.099C89.1831 249.914 88.7061 249.822 88.1336 249.822C87.3519 249.822 86.6994 249.997 86.1762 250.348C85.653 250.693 85.3914 251.139 85.3914 251.687C85.3914 252.161 85.5669 252.542 85.9177 252.832C86.2686 253.121 86.8348 253.358 87.6166 253.543L89.8694 254.06C91.1743 254.361 92.1469 254.826 92.787 255.454C93.4272 256.082 93.7472 256.897 93.7472 257.901C93.7472 258.75 93.501 259.507 93.0086 260.172C92.5223 260.83 91.8422 261.348 90.9681 261.723C90.1002 262.098 89.0938 262.286 87.949 262.286C86.3609 262.286 85.0652 261.948 84.0619 261.271C83.0586 260.587 82.443 259.618 82.2153 258.362L84.8836 257.956C85.0498 258.652 85.3914 259.178 85.9085 259.535C86.4255 259.886 87.0995 260.061 87.9305 260.061C88.8353 260.061 89.5586 259.873 90.1002 259.498C90.6419 259.116 90.9127 258.652 90.9127 258.104C90.9127 257.661 90.7465 257.288 90.4142 256.987C90.0879 256.685 89.5863 256.457 88.9092 256.303L86.5086 255.777C85.1852 255.475 84.2065 254.995 83.5725 254.337C82.9447 253.678 82.6308 252.844 82.6308 251.835C82.6308 250.997 82.8647 250.265 83.3325 249.637C83.8003 249.009 84.4466 248.52 85.2714 248.169C86.0962 247.812 87.041 247.634 88.1059 247.634C89.6386 247.634 90.845 247.966 91.7252 248.631C92.6054 249.289 93.1871 250.173 93.4703 251.281ZM102.756 262.286C101.384 262.286 100.202 261.975 99.2108 261.354C98.226 260.726 97.4689 259.861 96.9395 258.759C96.4102 257.657 96.1455 256.396 96.1455 254.974C96.1455 253.533 96.4163 252.262 96.958 251.161C97.4997 250.053 98.2629 249.188 99.2478 248.566C100.233 247.944 101.393 247.634 102.729 247.634C103.806 247.634 104.766 247.834 105.609 248.234C106.453 248.628 107.133 249.182 107.65 249.896C108.173 250.61 108.484 251.444 108.582 252.398H105.896C105.748 251.733 105.409 251.161 104.88 250.68C104.357 250.2 103.655 249.96 102.775 249.96C102.005 249.96 101.331 250.163 100.753 250.57C100.18 250.97 99.734 251.542 99.414 252.287C99.0939 253.026 98.9339 253.9 98.9339 254.909C98.9339 255.943 99.0908 256.836 99.4047 257.587C99.7187 258.338 100.162 258.919 100.734 259.332C101.313 259.744 101.993 259.95 102.775 259.95C103.298 259.95 103.772 259.855 104.197 259.664C104.628 259.467 104.988 259.187 105.277 258.824C105.572 258.461 105.779 258.024 105.896 257.513H108.582C108.484 258.43 108.185 259.249 107.687 259.969C107.188 260.689 106.52 261.255 105.683 261.668C104.852 262.08 103.877 262.286 102.756 262.286ZM111.535 262V247.818H114.203V250.071H114.351C114.609 249.308 115.065 248.708 115.717 248.271C116.376 247.827 117.12 247.606 117.951 247.606C118.124 247.606 118.327 247.612 118.561 247.624C118.801 247.637 118.989 247.652 119.124 247.67V250.311C119.013 250.28 118.816 250.246 118.533 250.21C118.25 250.166 117.967 250.145 117.684 250.145C117.031 250.145 116.45 250.283 115.939 250.56C115.434 250.831 115.034 251.21 114.738 251.696C114.443 252.176 114.295 252.724 114.295 253.339V262H111.535ZM127.117 262.286C125.72 262.286 124.517 261.988 123.507 261.391C122.504 260.787 121.728 259.941 121.181 258.852C120.639 257.756 120.368 256.473 120.368 255.001C120.368 253.549 120.639 252.268 121.181 251.161C121.728 250.053 122.492 249.188 123.47 248.566C124.455 247.944 125.606 247.634 126.924 247.634C127.724 247.634 128.499 247.766 129.25 248.031C130.001 248.295 130.675 248.711 131.272 249.277C131.869 249.843 132.34 250.579 132.685 251.484C133.03 252.382 133.202 253.475 133.202 254.761V255.74H121.929V253.672H130.497C130.497 252.946 130.349 252.302 130.054 251.742C129.758 251.176 129.343 250.73 128.807 250.403C128.278 250.077 127.656 249.914 126.942 249.914C126.166 249.914 125.489 250.105 124.911 250.487C124.338 250.862 123.895 251.354 123.581 251.964C123.273 252.567 123.12 253.223 123.12 253.93V255.546C123.12 256.494 123.286 257.3 123.618 257.965C123.957 258.63 124.428 259.138 125.031 259.489C125.634 259.833 126.339 260.006 127.145 260.006C127.668 260.006 128.145 259.932 128.576 259.784C129.007 259.63 129.38 259.402 129.693 259.101C130.007 258.799 130.247 258.427 130.414 257.984L133.027 258.455C132.817 259.224 132.442 259.898 131.9 260.477C131.365 261.049 130.691 261.495 129.878 261.815C129.072 262.129 128.152 262.286 127.117 262.286ZM142.377 262.286C140.98 262.286 139.777 261.988 138.767 261.391C137.764 260.787 136.988 259.941 136.44 258.852C135.899 257.756 135.628 256.473 135.628 255.001C135.628 253.549 135.899 252.268 136.44 251.161C136.988 250.053 137.752 249.188 138.73 248.566C139.715 247.944 140.866 247.634 142.183 247.634C142.984 247.634 143.759 247.766 144.51 248.031C145.261 248.295 145.935 248.711 146.532 249.277C147.129 249.843 147.6 250.579 147.945 251.484C148.289 252.382 148.462 253.475 148.462 254.761V255.74H137.188V253.672H145.756C145.756 252.946 145.609 252.302 145.313 251.742C145.018 251.176 144.602 250.73 144.067 250.403C143.537 250.077 142.916 249.914 142.202 249.914C141.426 249.914 140.749 250.105 140.171 250.487C139.598 250.862 139.155 251.354 138.841 251.964C138.533 252.567 138.379 253.223 138.379 253.93V255.546C138.379 256.494 138.546 257.3 138.878 257.965C139.216 258.63 139.687 259.138 140.291 259.489C140.894 259.833 141.599 260.006 142.405 260.006C142.928 260.006 143.405 259.932 143.836 259.784C144.267 259.63 144.639 259.402 144.953 259.101C145.267 258.799 145.507 258.427 145.673 257.984L148.286 258.455C148.077 259.224 147.702 259.898 147.16 260.477C146.624 261.049 145.95 261.495 145.138 261.815C144.332 262.129 143.411 262.286 142.377 262.286ZM154.285 253.58V262H151.525V247.818H154.175V250.126H154.35C154.676 249.375 155.187 248.772 155.883 248.317C156.584 247.861 157.468 247.634 158.533 247.634C159.499 247.634 160.345 247.837 161.072 248.243C161.798 248.643 162.361 249.24 162.761 250.034C163.161 250.828 163.361 251.81 163.361 252.979V262H160.601V253.312C160.601 252.284 160.333 251.481 159.797 250.902C159.262 250.317 158.526 250.025 157.591 250.025C156.951 250.025 156.381 250.163 155.883 250.44C155.39 250.717 154.999 251.124 154.71 251.659C154.427 252.188 154.285 252.829 154.285 253.58ZM184.572 251.281L182.07 251.724C181.965 251.404 181.799 251.099 181.571 250.81C181.35 250.52 181.048 250.283 180.666 250.099C180.285 249.914 179.808 249.822 179.235 249.822C178.453 249.822 177.801 249.997 177.278 250.348C176.755 250.693 176.493 251.139 176.493 251.687C176.493 252.161 176.668 252.542 177.019 252.832C177.37 253.121 177.936 253.358 178.718 253.543L180.971 254.06C182.276 254.361 183.248 254.826 183.889 255.454C184.529 256.082 184.849 256.897 184.849 257.901C184.849 258.75 184.603 259.507 184.11 260.172C183.624 260.83 182.944 261.348 182.07 261.723C181.202 262.098 180.195 262.286 179.051 262.286C177.462 262.286 176.167 261.948 175.163 261.271C174.16 260.587 173.545 259.618 173.317 258.362L175.985 257.956C176.151 258.652 176.493 259.178 177.01 259.535C177.527 259.886 178.201 260.061 179.032 260.061C179.937 260.061 180.66 259.873 181.202 259.498C181.743 259.116 182.014 258.652 182.014 258.104C182.014 257.661 181.848 257.288 181.516 256.987C181.189 256.685 180.688 256.457 180.011 256.303L177.61 255.777C176.287 255.475 175.308 254.995 174.674 254.337C174.046 253.678 173.732 252.844 173.732 251.835C173.732 250.997 173.966 250.265 174.434 249.637C174.902 249.009 175.548 248.52 176.373 248.169C177.198 247.812 178.143 247.634 179.207 247.634C180.74 247.634 181.947 247.966 182.827 248.631C183.707 249.289 184.289 250.173 184.572 251.281ZM190.645 253.58V262H187.884V243.091H190.608V250.126H190.783C191.116 249.363 191.623 248.757 192.307 248.308C192.99 247.858 193.882 247.634 194.984 247.634C195.957 247.634 196.806 247.834 197.533 248.234C198.265 248.634 198.831 249.231 199.231 250.025C199.638 250.813 199.841 251.798 199.841 252.979V262H197.08V253.312C197.08 252.272 196.812 251.465 196.277 250.893C195.741 250.314 194.997 250.025 194.043 250.025C193.39 250.025 192.805 250.163 192.288 250.44C191.777 250.717 191.374 251.124 191.079 251.659C190.789 252.188 190.645 252.829 190.645 253.58ZM207.652 262.314C206.753 262.314 205.941 262.148 205.214 261.815C204.488 261.477 203.913 260.987 203.488 260.347C203.069 259.707 202.86 258.922 202.86 257.993C202.86 257.193 203.014 256.534 203.322 256.017C203.629 255.5 204.045 255.091 204.568 254.789C205.091 254.487 205.676 254.26 206.322 254.106C206.969 253.952 207.627 253.835 208.298 253.755C209.148 253.656 209.837 253.576 210.366 253.515C210.896 253.447 211.28 253.339 211.521 253.192C211.761 253.044 211.881 252.804 211.881 252.472V252.407C211.881 251.601 211.653 250.976 211.197 250.533C210.748 250.089 210.077 249.868 209.185 249.868C208.255 249.868 207.523 250.074 206.987 250.487C206.458 250.893 206.092 251.345 205.888 251.844L203.294 251.253C203.602 250.391 204.051 249.696 204.642 249.166C205.239 248.631 205.925 248.243 206.701 248.003C207.476 247.757 208.292 247.634 209.148 247.634C209.714 247.634 210.314 247.701 210.948 247.837C211.588 247.966 212.185 248.206 212.739 248.557C213.299 248.908 213.758 249.409 214.115 250.062C214.472 250.708 214.65 251.548 214.65 252.582V262H211.954V260.061H211.844C211.665 260.418 211.397 260.769 211.04 261.114C210.683 261.458 210.225 261.745 209.665 261.972C209.105 262.2 208.434 262.314 207.652 262.314ZM208.252 260.098C209.015 260.098 209.668 259.947 210.209 259.646C210.757 259.344 211.173 258.95 211.456 258.464C211.745 257.971 211.89 257.445 211.89 256.885V255.057C211.791 255.155 211.601 255.248 211.317 255.334C211.04 255.414 210.723 255.485 210.366 255.546C210.009 255.602 209.662 255.654 209.323 255.703C208.985 255.746 208.701 255.783 208.474 255.814C207.938 255.882 207.449 255.996 207.006 256.156C206.569 256.316 206.218 256.546 205.953 256.848C205.695 257.143 205.565 257.537 205.565 258.03C205.565 258.713 205.818 259.23 206.322 259.581C206.827 259.926 207.47 260.098 208.252 260.098ZM218.328 262V247.818H220.996V250.071H221.144C221.402 249.308 221.858 248.708 222.51 248.271C223.169 247.827 223.913 247.606 224.744 247.606C224.917 247.606 225.12 247.612 225.354 247.624C225.594 247.637 225.782 247.652 225.917 247.67V250.311C225.806 250.28 225.609 250.246 225.326 250.21C225.043 250.166 224.76 250.145 224.477 250.145C223.824 250.145 223.243 250.283 222.732 250.56C222.227 250.831 221.827 251.21 221.531 251.696C221.236 252.176 221.088 252.724 221.088 253.339V262H218.328ZM228.306 262V247.818H231.067V262H228.306ZM229.7 245.63C229.22 245.63 228.808 245.47 228.463 245.15C228.124 244.824 227.955 244.436 227.955 243.987C227.955 243.531 228.124 243.143 228.463 242.823C228.808 242.497 229.22 242.334 229.7 242.334C230.18 242.334 230.59 242.497 230.928 242.823C231.273 243.143 231.445 243.531 231.445 243.987C231.445 244.436 231.273 244.824 230.928 245.15C230.59 245.47 230.18 245.63 229.7 245.63ZM237.541 253.58V262H234.781V247.818H237.43V250.126H237.606C237.932 249.375 238.443 248.772 239.139 248.317C239.84 247.861 240.724 247.634 241.788 247.634C242.755 247.634 243.601 247.837 244.328 248.243C245.054 248.643 245.617 249.24 246.017 250.034C246.417 250.828 246.617 251.81 246.617 252.979V262H243.857V253.312C243.857 252.284 243.589 251.481 243.053 250.902C242.518 250.317 241.782 250.025 240.847 250.025C240.207 250.025 239.637 250.163 239.139 250.44C238.646 250.717 238.255 251.124 237.966 251.659C237.683 252.188 237.541 252.829 237.541 253.58ZM256.266 267.614C255.139 267.614 254.17 267.466 253.357 267.17C252.551 266.875 251.892 266.484 251.381 265.998C250.871 265.512 250.489 264.979 250.237 264.401L252.609 263.422C252.776 263.693 252.997 263.979 253.274 264.281C253.557 264.588 253.939 264.85 254.419 265.065C254.905 265.281 255.53 265.388 256.293 265.388C257.34 265.388 258.205 265.133 258.888 264.622C259.571 264.117 259.913 263.311 259.913 262.203V259.415H259.737C259.571 259.716 259.331 260.052 259.017 260.421C258.709 260.79 258.285 261.111 257.743 261.381C257.201 261.652 256.497 261.788 255.629 261.788C254.508 261.788 253.499 261.526 252.6 261.003C251.708 260.473 251 259.695 250.477 258.667C249.96 257.633 249.701 256.362 249.701 254.854C249.701 253.346 249.957 252.053 250.467 250.976C250.984 249.899 251.692 249.074 252.591 248.501C253.49 247.923 254.508 247.634 255.647 247.634C256.527 247.634 257.238 247.781 257.78 248.077C258.322 248.366 258.743 248.705 259.045 249.092C259.353 249.48 259.59 249.822 259.756 250.117H259.959V247.818H262.664V262.314C262.664 263.533 262.381 264.533 261.815 265.315C261.248 266.096 260.482 266.675 259.516 267.05C258.555 267.426 257.472 267.614 256.266 267.614ZM256.238 259.498C257.032 259.498 257.703 259.313 258.251 258.944C258.805 258.568 259.223 258.033 259.506 257.337C259.796 256.636 259.94 255.795 259.94 254.817C259.94 253.863 259.799 253.022 259.516 252.296C259.233 251.57 258.817 251.004 258.269 250.597C257.721 250.185 257.044 249.979 256.238 249.979C255.407 249.979 254.715 250.194 254.161 250.625C253.607 251.05 253.188 251.628 252.905 252.361C252.628 253.093 252.489 253.912 252.489 254.817C252.489 255.746 252.631 256.562 252.914 257.263C253.197 257.965 253.616 258.513 254.17 258.907C254.73 259.301 255.419 259.498 256.238 259.498Z" fill="black"/>
<path d="M385.938 27.4927C387.087 28.3174 387.345 29.9035 386.509 31.0375L365.937 58.9522C365.495 59.5549 364.812 59.9276 364.056 59.9911C363.301 60.0545 362.57 59.777 362.039 59.2536L351.753 49.1028C350.749 48.1115 350.749 46.5016 351.753 45.5103C352.758 44.519 354.389 44.519 355.394 45.5103L363.55 53.5596L382.354 28.0478C383.19 26.9137 384.797 26.66 385.946 27.4847L385.938 27.4927Z" fill="#00A708"/>
<path d="M430.883 38.2559H419.123V44.584H429.951C430.748 44.584 431.34 44.7656 431.727 45.1289C432.125 45.4805 432.324 45.9492 432.324 46.5352C432.324 47.1211 432.131 47.6016 431.744 47.9766C431.357 48.3398 430.76 48.5215 429.951 48.5215H419.123V55.8516H431.287C432.107 55.8516 432.723 56.0449 433.133 56.4316C433.555 56.8066 433.766 57.3105 433.766 57.9434C433.766 58.5527 433.555 59.0508 433.133 59.4375C432.723 59.8125 432.107 60 431.287 60H417.102C415.965 60 415.145 59.748 414.641 59.2441C414.148 58.7402 413.902 57.9258 413.902 56.8008V37.4297C413.902 36.6797 414.014 36.0703 414.236 35.6016C414.459 35.1211 414.805 34.7754 415.273 34.5645C415.754 34.3418 416.363 34.2305 417.102 34.2305H430.883C431.715 34.2305 432.33 34.418 432.729 34.793C433.139 35.1562 433.344 35.6367 433.344 36.2344C433.344 36.8438 433.139 37.3359 432.729 37.7109C432.33 38.0742 431.715 38.2559 430.883 38.2559ZM453.541 51.0352V57.416C453.541 58.4238 453.312 59.1797 452.855 59.6836C452.398 60.1875 451.795 60.4395 451.045 60.4395C450.318 60.4395 449.727 60.1875 449.27 59.6836C448.824 59.1797 448.602 58.4238 448.602 57.416V49.7695C448.602 48.5625 448.561 47.625 448.479 46.957C448.396 46.2891 448.174 45.7441 447.811 45.3223C447.447 44.8887 446.873 44.6719 446.088 44.6719C444.518 44.6719 443.48 45.2109 442.977 46.2891C442.484 47.3672 442.238 48.9141 442.238 50.9297V57.416C442.238 58.4121 442.01 59.168 441.553 59.6836C441.107 60.1875 440.516 60.4395 439.777 60.4395C439.051 60.4395 438.453 60.1875 437.984 59.6836C437.527 59.168 437.299 58.4121 437.299 57.416V43.6875C437.299 42.7852 437.504 42.0996 437.914 41.6309C438.336 41.1621 438.887 40.9277 439.566 40.9277C440.223 40.9277 440.768 41.1504 441.201 41.5957C441.646 42.0293 441.869 42.6328 441.869 43.4062V43.8633C442.701 42.8672 443.592 42.1348 444.541 41.666C445.49 41.1973 446.545 40.9629 447.705 40.9629C448.912 40.9629 449.949 41.2031 450.816 41.6836C451.684 42.1641 452.398 42.8906 452.961 43.8633C453.77 42.8789 454.637 42.1523 455.562 41.6836C456.488 41.2031 457.514 40.9629 458.639 40.9629C459.951 40.9629 461.082 41.2207 462.031 41.7363C462.98 42.252 463.689 42.9902 464.158 43.9512C464.568 44.8184 464.773 46.1836 464.773 48.0469V57.416C464.773 58.4238 464.545 59.1797 464.088 59.6836C463.631 60.1875 463.027 60.4395 462.277 60.4395C461.551 60.4395 460.953 60.1875 460.484 59.6836C460.027 59.168 459.799 58.4121 459.799 57.416V49.3477C459.799 48.3164 459.752 47.4902 459.658 46.8691C459.576 46.248 459.342 45.7266 458.955 45.3047C458.568 44.8828 457.982 44.6719 457.197 44.6719C456.564 44.6719 455.961 44.8594 455.387 45.2344C454.824 45.6094 454.385 46.1133 454.068 46.7461C453.717 47.5547 453.541 48.9844 453.541 51.0352ZM481.561 57.7324C480.4 58.6348 479.275 59.3145 478.186 59.7715C477.107 60.2168 475.895 60.4395 474.547 60.4395C473.316 60.4395 472.232 60.1992 471.295 59.7188C470.369 59.2266 469.654 58.5645 469.15 57.7324C468.646 56.9004 468.395 55.998 468.395 55.0254C468.395 53.7129 468.811 52.5938 469.643 51.668C470.475 50.7422 471.617 50.1211 473.07 49.8047C473.375 49.7344 474.131 49.5762 475.338 49.3301C476.545 49.084 477.576 48.8613 478.432 48.6621C479.299 48.4512 480.236 48.1992 481.244 47.9062C481.186 46.6406 480.928 45.7148 480.471 45.1289C480.025 44.5312 479.094 44.2324 477.676 44.2324C476.457 44.2324 475.537 44.4023 474.916 44.7422C474.307 45.082 473.779 45.5918 473.334 46.2715C472.9 46.9512 472.59 47.4023 472.402 47.625C472.227 47.8359 471.84 47.9414 471.242 47.9414C470.703 47.9414 470.234 47.7715 469.836 47.4316C469.449 47.0801 469.256 46.6348 469.256 46.0957C469.256 45.252 469.555 44.4316 470.152 43.6348C470.75 42.8379 471.682 42.1816 472.947 41.666C474.213 41.1504 475.789 40.8926 477.676 40.8926C479.785 40.8926 481.443 41.1445 482.65 41.6484C483.857 42.1406 484.707 42.9258 485.199 44.0039C485.703 45.082 485.955 46.5117 485.955 48.293C485.955 49.418 485.949 50.373 485.938 51.1582C485.938 51.9434 485.932 52.8164 485.92 53.7773C485.92 54.6797 486.066 55.623 486.359 56.6074C486.664 57.5801 486.816 58.207 486.816 58.4883C486.816 58.9805 486.582 59.4316 486.113 59.8418C485.656 60.2402 485.135 60.4395 484.549 60.4395C484.057 60.4395 483.57 60.2109 483.09 59.7539C482.609 59.2852 482.1 58.6113 481.561 57.7324ZM481.244 50.7891C480.541 51.0469 479.516 51.3223 478.168 51.6152C476.832 51.8965 475.906 52.1074 475.391 52.248C474.875 52.377 474.383 52.6406 473.914 53.0391C473.445 53.4258 473.211 53.9707 473.211 54.6738C473.211 55.4004 473.486 56.0215 474.037 56.5371C474.588 57.041 475.309 57.293 476.199 57.293C477.148 57.293 478.021 57.0879 478.818 56.6777C479.627 56.2559 480.219 55.7168 480.594 55.0605C481.027 54.334 481.244 53.1387 481.244 51.4746V50.7891ZM495.641 43.6523V57.5215C495.641 58.4824 495.412 59.209 494.955 59.7012C494.498 60.1934 493.918 60.4395 493.215 60.4395C492.512 60.4395 491.938 60.1875 491.492 59.6836C491.059 59.1797 490.842 58.459 490.842 57.5215V43.793C490.842 42.8438 491.059 42.1289 491.492 41.6484C491.938 41.168 492.512 40.9277 493.215 40.9277C493.918 40.9277 494.498 41.168 494.955 41.6484C495.412 42.1289 495.641 42.7969 495.641 43.6523ZM493.268 38.6953C492.6 38.6953 492.025 38.4902 491.545 38.0801C491.076 37.6699 490.842 37.0898 490.842 36.3398C490.842 35.6602 491.082 35.1035 491.562 34.6699C492.055 34.2246 492.623 34.002 493.268 34.002C493.889 34.002 494.439 34.2012 494.92 34.5996C495.4 34.998 495.641 35.5781 495.641 36.3398C495.641 37.0781 495.406 37.6582 494.938 38.0801C494.469 38.4902 493.912 38.6953 493.268 38.6953ZM500.615 57.5215V36.709C500.615 35.748 500.826 35.0215 501.248 34.5293C501.682 34.0371 502.262 33.791 502.988 33.791C503.715 33.791 504.301 34.0371 504.746 34.5293C505.191 35.0098 505.414 35.7363 505.414 36.709V57.5215C505.414 58.4941 505.186 59.2266 504.729 59.7188C504.283 60.1992 503.703 60.4395 502.988 60.4395C502.285 60.4395 501.711 60.1875 501.266 59.6836C500.832 59.1797 500.615 58.459 500.615 57.5215Z" fill="black"/>
<path d="M385.938 94.4927C387.087 95.3174 387.345 96.9035 386.509 98.0375L365.937 125.952C365.495 126.555 364.812 126.928 364.056 126.991C363.301 127.055 362.57 126.777 362.039 126.254L351.753 116.103C350.749 115.111 350.749 113.502 351.753 112.51C352.758 111.519 354.389 111.519 355.394 112.51L363.55 120.56L382.354 95.0478C383.19 93.9137 384.797 93.66 385.946 94.4847L385.938 94.4927Z" fill="#00A708"/>
<path d="M413.244 120.988L426.48 105.15H415.107C414.311 105.15 413.707 104.975 413.297 104.623C412.898 104.271 412.699 103.809 412.699 103.234C412.699 102.637 412.898 102.156 413.297 101.793C413.707 101.418 414.311 101.23 415.107 101.23H429.768C431.666 101.23 432.615 102.115 432.615 103.885C432.615 104.729 432.457 105.402 432.141 105.906C431.824 106.41 431.186 107.225 430.225 108.35L417.85 123.08H431.49C432.299 123.08 432.902 123.25 433.301 123.59C433.699 123.918 433.898 124.381 433.898 124.979C433.898 125.6 433.699 126.092 433.301 126.455C432.902 126.818 432.299 127 431.49 127H414.756C413.619 127 412.764 126.748 412.189 126.244C411.615 125.729 411.328 125.043 411.328 124.188C411.328 123.895 411.375 123.625 411.469 123.379C411.562 123.133 411.686 122.904 411.838 122.693C412.002 122.471 412.225 122.195 412.506 121.867C412.787 121.527 413.033 121.234 413.244 120.988ZM454.834 117.684C454.834 119.113 454.611 120.432 454.166 121.639C453.721 122.846 453.076 123.883 452.232 124.75C451.389 125.617 450.381 126.285 449.209 126.754C448.037 127.211 446.719 127.439 445.254 127.439C443.801 127.439 442.494 127.205 441.334 126.736C440.174 126.268 439.166 125.6 438.311 124.732C437.467 123.854 436.822 122.822 436.377 121.639C435.943 120.443 435.727 119.125 435.727 117.684C435.727 116.23 435.949 114.9 436.395 113.693C436.84 112.486 437.479 111.455 438.311 110.6C439.143 109.744 440.15 109.088 441.334 108.631C442.518 108.162 443.824 107.928 445.254 107.928C446.707 107.928 448.025 108.162 449.209 108.631C450.393 109.1 451.406 109.768 452.25 110.635C453.094 111.502 453.732 112.533 454.166 113.729C454.611 114.924 454.834 116.242 454.834 117.684ZM450.018 117.684C450.018 115.727 449.584 114.203 448.717 113.113C447.861 112.023 446.707 111.479 445.254 111.479C444.316 111.479 443.49 111.725 442.775 112.217C442.061 112.697 441.51 113.412 441.123 114.361C440.736 115.311 440.543 116.418 440.543 117.684C440.543 118.938 440.73 120.033 441.105 120.971C441.492 121.908 442.037 122.629 442.74 123.133C443.455 123.625 444.293 123.871 445.254 123.871C446.707 123.871 447.861 123.326 448.717 122.236C449.584 121.135 450.018 119.617 450.018 117.684ZM476.596 117.684C476.596 119.113 476.373 120.432 475.928 121.639C475.482 122.846 474.838 123.883 473.994 124.75C473.15 125.617 472.143 126.285 470.971 126.754C469.799 127.211 468.48 127.439 467.016 127.439C465.562 127.439 464.256 127.205 463.096 126.736C461.936 126.268 460.928 125.6 460.072 124.732C459.229 123.854 458.584 122.822 458.139 121.639C457.705 120.443 457.488 119.125 457.488 117.684C457.488 116.23 457.711 114.9 458.156 113.693C458.602 112.486 459.24 111.455 460.072 110.6C460.904 109.744 461.912 109.088 463.096 108.631C464.279 108.162 465.586 107.928 467.016 107.928C468.469 107.928 469.787 108.162 470.971 108.631C472.154 109.1 473.168 109.768 474.012 110.635C474.855 111.502 475.494 112.533 475.928 113.729C476.373 114.924 476.596 116.242 476.596 117.684ZM471.779 117.684C471.779 115.727 471.346 114.203 470.479 113.113C469.623 112.023 468.469 111.479 467.016 111.479C466.078 111.479 465.252 111.725 464.537 112.217C463.822 112.697 463.271 113.412 462.885 114.361C462.498 115.311 462.305 116.418 462.305 117.684C462.305 118.938 462.492 120.033 462.867 120.971C463.254 121.908 463.799 122.629 464.502 123.133C465.217 123.625 466.055 123.871 467.016 123.871C468.469 123.871 469.623 123.326 470.479 122.236C471.346 121.135 471.779 119.617 471.779 117.684ZM496.354 118.035V124.416C496.354 125.424 496.125 126.18 495.668 126.684C495.211 127.188 494.607 127.439 493.857 127.439C493.131 127.439 492.539 127.188 492.082 126.684C491.637 126.18 491.414 125.424 491.414 124.416V116.77C491.414 115.562 491.373 114.625 491.291 113.957C491.209 113.289 490.986 112.744 490.623 112.322C490.26 111.889 489.686 111.672 488.9 111.672C487.33 111.672 486.293 112.211 485.789 113.289C485.297 114.367 485.051 115.914 485.051 117.93V124.416C485.051 125.412 484.822 126.168 484.365 126.684C483.92 127.188 483.328 127.439 482.59 127.439C481.863 127.439 481.266 127.188 480.797 126.684C480.34 126.168 480.111 125.412 480.111 124.416V110.688C480.111 109.785 480.316 109.1 480.727 108.631C481.148 108.162 481.699 107.928 482.379 107.928C483.035 107.928 483.58 108.15 484.014 108.596C484.459 109.029 484.682 109.633 484.682 110.406V110.863C485.514 109.867 486.404 109.135 487.354 108.666C488.303 108.197 489.357 107.963 490.518 107.963C491.725 107.963 492.762 108.203 493.629 108.684C494.496 109.164 495.211 109.891 495.773 110.863C496.582 109.879 497.449 109.152 498.375 108.684C499.301 108.203 500.326 107.963 501.451 107.963C502.764 107.963 503.895 108.221 504.844 108.736C505.793 109.252 506.502 109.99 506.971 110.951C507.381 111.818 507.586 113.184 507.586 115.047V124.416C507.586 125.424 507.357 126.18 506.9 126.684C506.443 127.188 505.84 127.439 505.09 127.439C504.363 127.439 503.766 127.188 503.297 126.684C502.84 126.168 502.611 125.412 502.611 124.416V116.348C502.611 115.316 502.564 114.49 502.471 113.869C502.389 113.248 502.154 112.727 501.768 112.305C501.381 111.883 500.795 111.672 500.01 111.672C499.377 111.672 498.773 111.859 498.199 112.234C497.637 112.609 497.197 113.113 496.881 113.746C496.529 114.555 496.354 115.984 496.354 118.035ZM530.279 123.115L526.148 106.697V124.486C526.148 125.471 525.926 126.209 525.48 126.701C525.047 127.193 524.467 127.439 523.74 127.439C523.037 127.439 522.463 127.199 522.018 126.719C521.572 126.227 521.35 125.482 521.35 124.486V104.096C521.35 102.971 521.643 102.215 522.229 101.828C522.814 101.43 523.605 101.23 524.602 101.23H526.219C527.191 101.23 527.895 101.318 528.328 101.494C528.773 101.67 529.102 101.986 529.312 102.443C529.523 102.9 529.764 103.645 530.033 104.676L533.777 118.791L537.521 104.676C537.791 103.645 538.031 102.9 538.242 102.443C538.453 101.986 538.775 101.67 539.209 101.494C539.654 101.318 540.363 101.23 541.336 101.23H542.953C543.949 101.23 544.74 101.43 545.326 101.828C545.912 102.215 546.205 102.971 546.205 104.096V124.486C546.205 125.471 545.982 126.209 545.537 126.701C545.104 127.193 544.518 127.439 543.779 127.439C543.088 127.439 542.52 127.193 542.074 126.701C541.629 126.209 541.406 125.471 541.406 124.486V106.697L537.275 123.115C537.006 124.182 536.783 124.967 536.607 125.471C536.443 125.963 536.133 126.414 535.676 126.824C535.219 127.234 534.586 127.439 533.777 127.439C533.168 127.439 532.652 127.305 532.23 127.035C531.809 126.777 531.48 126.443 531.246 126.033C531.012 125.623 530.824 125.172 530.684 124.68C530.555 124.176 530.42 123.654 530.279 123.115ZM564.627 118.861H555.24C555.252 119.951 555.469 120.912 555.891 121.744C556.324 122.576 556.893 123.203 557.596 123.625C558.311 124.047 559.096 124.258 559.951 124.258C560.525 124.258 561.047 124.193 561.516 124.064C561.996 123.924 562.459 123.713 562.904 123.432C563.35 123.139 563.76 122.828 564.135 122.5C564.51 122.172 564.996 121.727 565.594 121.164C565.84 120.953 566.191 120.848 566.648 120.848C567.141 120.848 567.539 120.982 567.844 121.252C568.148 121.521 568.301 121.902 568.301 122.395C568.301 122.828 568.131 123.338 567.791 123.924C567.451 124.498 566.936 125.055 566.244 125.594C565.564 126.121 564.703 126.561 563.66 126.912C562.629 127.264 561.439 127.439 560.092 127.439C557.01 127.439 554.613 126.561 552.902 124.803C551.191 123.045 550.336 120.66 550.336 117.648C550.336 116.23 550.547 114.918 550.969 113.711C551.391 112.492 552.006 111.449 552.814 110.582C553.623 109.715 554.619 109.053 555.803 108.596C556.986 108.127 558.299 107.893 559.74 107.893C561.615 107.893 563.221 108.291 564.557 109.088C565.904 109.873 566.912 110.893 567.58 112.146C568.248 113.4 568.582 114.678 568.582 115.979C568.582 117.186 568.236 117.971 567.545 118.334C566.854 118.686 565.881 118.861 564.627 118.861ZM555.24 116.137H563.941C563.824 114.496 563.379 113.271 562.605 112.463C561.844 111.643 560.836 111.232 559.582 111.232C558.387 111.232 557.402 111.648 556.629 112.48C555.867 113.301 555.404 114.52 555.24 116.137ZM586.037 118.861H576.65C576.662 119.951 576.879 120.912 577.301 121.744C577.734 122.576 578.303 123.203 579.006 123.625C579.721 124.047 580.506 124.258 581.361 124.258C581.936 124.258 582.457 124.193 582.926 124.064C583.406 123.924 583.869 123.713 584.314 123.432C584.76 123.139 585.17 122.828 585.545 122.5C585.92 122.172 586.406 121.727 587.004 121.164C587.25 120.953 587.602 120.848 588.059 120.848C588.551 120.848 588.949 120.982 589.254 121.252C589.559 121.521 589.711 121.902 589.711 122.395C589.711 122.828 589.541 123.338 589.201 123.924C588.861 124.498 588.346 125.055 587.654 125.594C586.975 126.121 586.113 126.561 585.07 126.912C584.039 127.264 582.85 127.439 581.502 127.439C578.42 127.439 576.023 126.561 574.312 124.803C572.602 123.045 571.746 120.66 571.746 117.648C571.746 116.23 571.957 114.918 572.379 113.711C572.801 112.492 573.416 111.449 574.225 110.582C575.033 109.715 576.029 109.053 577.213 108.596C578.396 108.127 579.709 107.893 581.15 107.893C583.025 107.893 584.631 108.291 585.967 109.088C587.314 109.873 588.322 110.893 588.99 112.146C589.658 113.4 589.992 114.678 589.992 115.979C589.992 117.186 589.646 117.971 588.955 118.334C588.264 118.686 587.291 118.861 586.037 118.861ZM576.65 116.137H585.352C585.234 114.496 584.789 113.271 584.016 112.463C583.254 111.643 582.246 111.232 580.992 111.232C579.797 111.232 578.812 111.648 578.039 112.48C577.277 113.301 576.814 114.52 576.65 116.137ZM594.316 108.35H594.844V105.467C594.844 104.693 594.861 104.09 594.896 103.656C594.943 103.211 595.061 102.83 595.248 102.514C595.436 102.186 595.705 101.922 596.057 101.723C596.408 101.512 596.801 101.406 597.234 101.406C597.844 101.406 598.395 101.635 598.887 102.092C599.215 102.396 599.42 102.771 599.502 103.217C599.596 103.65 599.643 104.271 599.643 105.08V108.35H601.4C602.08 108.35 602.596 108.514 602.947 108.842C603.311 109.158 603.492 109.568 603.492 110.072C603.492 110.717 603.234 111.168 602.719 111.426C602.215 111.684 601.488 111.812 600.539 111.812H599.643V120.637C599.643 121.387 599.666 121.967 599.713 122.377C599.771 122.775 599.912 123.104 600.135 123.361C600.369 123.607 600.744 123.73 601.26 123.73C601.541 123.73 601.922 123.684 602.402 123.59C602.883 123.484 603.258 123.432 603.527 123.432C603.914 123.432 604.26 123.59 604.564 123.906C604.881 124.211 605.039 124.592 605.039 125.049C605.039 125.822 604.617 126.414 603.773 126.824C602.93 127.234 601.717 127.439 600.135 127.439C598.635 127.439 597.498 127.188 596.725 126.684C595.951 126.18 595.441 125.482 595.195 124.592C594.961 123.701 594.844 122.512 594.844 121.023V111.812H594.211C593.52 111.812 592.992 111.648 592.629 111.32C592.266 110.992 592.084 110.576 592.084 110.072C592.084 109.568 592.271 109.158 592.646 108.842C593.033 108.514 593.59 108.35 594.316 108.35ZM611.613 110.652V124.521C611.613 125.482 611.385 126.209 610.928 126.701C610.471 127.193 609.891 127.439 609.188 127.439C608.484 127.439 607.91 127.188 607.465 126.684C607.031 126.18 606.814 125.459 606.814 124.521V110.793C606.814 109.844 607.031 109.129 607.465 108.648C607.91 108.168 608.484 107.928 609.188 107.928C609.891 107.928 610.471 108.168 610.928 108.648C611.385 109.129 611.613 109.797 611.613 110.652ZM609.24 105.695C608.572 105.695 607.998 105.49 607.518 105.08C607.049 104.67 606.814 104.09 606.814 103.34C606.814 102.66 607.055 102.104 607.535 101.67C608.027 101.225 608.596 101.002 609.24 101.002C609.861 101.002 610.412 101.201 610.893 101.6C611.373 101.998 611.613 102.578 611.613 103.34C611.613 104.078 611.379 104.658 610.91 105.08C610.441 105.49 609.885 105.695 609.24 105.695ZM620.947 110.582V111.162C621.791 110.049 622.711 109.234 623.707 108.719C624.715 108.191 625.869 107.928 627.17 107.928C628.436 107.928 629.566 108.203 630.562 108.754C631.559 109.305 632.303 110.084 632.795 111.092C633.111 111.678 633.316 112.311 633.41 112.99C633.504 113.67 633.551 114.537 633.551 115.592V124.521C633.551 125.482 633.328 126.209 632.883 126.701C632.449 127.193 631.881 127.439 631.178 127.439C630.463 127.439 629.883 127.188 629.438 126.684C628.992 126.18 628.77 125.459 628.77 124.521V116.523C628.77 114.941 628.547 113.734 628.102 112.902C627.668 112.059 626.795 111.637 625.482 111.637C624.627 111.637 623.848 111.895 623.145 112.41C622.441 112.914 621.926 113.611 621.598 114.502C621.363 115.217 621.246 116.553 621.246 118.51V124.521C621.246 125.494 621.018 126.227 620.561 126.719C620.115 127.199 619.535 127.439 618.82 127.439C618.129 127.439 617.561 127.188 617.115 126.684C616.67 126.18 616.447 125.459 616.447 124.521V110.652C616.447 109.738 616.646 109.059 617.045 108.613C617.443 108.156 617.988 107.928 618.68 107.928C619.102 107.928 619.482 108.027 619.822 108.227C620.162 108.426 620.432 108.725 620.631 109.123C620.842 109.521 620.947 110.008 620.947 110.582ZM655.998 111.443V125.383C655.998 126.977 655.828 128.348 655.488 129.496C655.148 130.645 654.604 131.594 653.854 132.344C653.104 133.094 652.119 133.65 650.9 134.014C649.693 134.377 648.188 134.559 646.383 134.559C644.73 134.559 643.254 134.324 641.953 133.855C640.652 133.398 639.65 132.801 638.947 132.062C638.244 131.336 637.893 130.586 637.893 129.812C637.893 129.227 638.092 128.746 638.49 128.371C638.889 128.008 639.369 127.826 639.932 127.826C640.635 127.826 641.25 128.137 641.777 128.758C642.035 129.074 642.299 129.391 642.568 129.707C642.85 130.035 643.154 130.311 643.482 130.533C643.822 130.768 644.227 130.938 644.695 131.043C645.164 131.16 645.703 131.219 646.312 131.219C647.555 131.219 648.516 131.043 649.195 130.691C649.887 130.352 650.367 129.871 650.637 129.25C650.918 128.629 651.082 127.961 651.129 127.246C651.176 126.543 651.211 125.406 651.234 123.836C650.496 124.867 649.641 125.652 648.668 126.191C647.707 126.73 646.559 127 645.223 127C643.617 127 642.211 126.59 641.004 125.77C639.809 124.949 638.889 123.801 638.244 122.324C637.6 120.848 637.277 119.143 637.277 117.209C637.277 115.768 637.471 114.467 637.857 113.307C638.256 112.146 638.818 111.168 639.545 110.371C640.271 109.574 641.109 108.977 642.059 108.578C643.008 108.168 644.051 107.963 645.188 107.963C646.547 107.963 647.725 108.227 648.721 108.754C649.717 109.27 650.643 110.084 651.498 111.197V110.547C651.498 109.715 651.703 109.07 652.113 108.613C652.523 108.156 653.051 107.928 653.695 107.928C654.621 107.928 655.236 108.232 655.541 108.842C655.846 109.439 655.998 110.307 655.998 111.443ZM642.094 117.525C642.094 119.471 642.516 120.941 643.359 121.938C644.215 122.934 645.316 123.432 646.664 123.432C647.461 123.432 648.211 123.221 648.914 122.799C649.629 122.365 650.209 121.721 650.654 120.865C651.1 119.998 651.322 118.949 651.322 117.719C651.322 115.762 650.889 114.238 650.021 113.148C649.166 112.059 648.035 111.514 646.629 111.514C645.258 111.514 644.156 112.035 643.324 113.078C642.504 114.121 642.094 115.604 642.094 117.525ZM676.301 121.164C676.301 122.488 675.979 123.625 675.334 124.574C674.689 125.512 673.734 126.227 672.469 126.719C671.215 127.199 669.686 127.439 667.881 127.439C666.158 127.439 664.682 127.176 663.451 126.648C662.221 126.121 661.312 125.465 660.727 124.68C660.141 123.883 659.848 123.086 659.848 122.289C659.848 121.762 660.035 121.311 660.41 120.936C660.785 120.561 661.26 120.373 661.834 120.373C662.338 120.373 662.725 120.496 662.994 120.742C663.264 120.988 663.521 121.334 663.768 121.779C664.26 122.635 664.846 123.273 665.525 123.695C666.217 124.117 667.154 124.328 668.338 124.328C669.299 124.328 670.084 124.117 670.693 123.695C671.314 123.262 671.625 122.77 671.625 122.219C671.625 121.375 671.303 120.76 670.658 120.373C670.025 119.986 668.977 119.617 667.512 119.266C665.859 118.855 664.512 118.428 663.469 117.982C662.438 117.525 661.611 116.928 660.99 116.189C660.369 115.451 660.059 114.543 660.059 113.465C660.059 112.504 660.346 111.596 660.92 110.74C661.494 109.885 662.338 109.205 663.451 108.701C664.576 108.186 665.93 107.928 667.512 107.928C668.754 107.928 669.867 108.057 670.852 108.314C671.848 108.572 672.674 108.918 673.33 109.352C673.998 109.785 674.502 110.266 674.842 110.793C675.193 111.32 675.369 111.836 675.369 112.34C675.369 112.891 675.182 113.342 674.807 113.693C674.443 114.045 673.922 114.221 673.242 114.221C672.75 114.221 672.328 114.08 671.977 113.799C671.637 113.518 671.244 113.096 670.799 112.533C670.436 112.064 670.008 111.689 669.516 111.408C669.023 111.127 668.355 110.986 667.512 110.986C666.645 110.986 665.924 111.174 665.35 111.549C664.775 111.912 664.488 112.369 664.488 112.92C664.488 113.424 664.699 113.84 665.121 114.168C665.543 114.484 666.111 114.748 666.826 114.959C667.541 115.17 668.525 115.428 669.779 115.732C671.268 116.096 672.48 116.529 673.418 117.033C674.367 117.537 675.082 118.135 675.562 118.826C676.055 119.506 676.301 120.285 676.301 121.164Z" fill="black"/>
<path d="M385.938 227.493C387.087 228.317 387.345 229.903 386.509 231.038L365.937 258.952C365.495 259.555 364.812 259.928 364.056 259.991C363.301 260.055 362.57 259.777 362.039 259.254L351.753 249.103C350.749 248.111 350.749 246.502 351.753 245.51C352.758 244.519 354.389 244.519 355.394 245.51L363.55 253.56L382.354 228.048C383.19 226.914 384.797 226.66 385.946 227.485L385.938 227.493Z" fill="#00A708"/>
<path d="M421.801 257.768V254.498H412.977C411.863 254.498 411.025 254.246 410.463 253.742C409.912 253.238 409.637 252.553 409.637 251.686C409.637 251.463 409.678 251.24 409.76 251.018C409.842 250.783 409.965 250.543 410.129 250.297C410.293 250.039 410.463 249.793 410.639 249.559C410.814 249.324 411.031 249.037 411.289 248.697L420.605 236.234C421.215 235.414 421.713 234.822 422.1 234.459C422.498 234.084 422.973 233.896 423.523 233.896C425.305 233.896 426.195 234.916 426.195 236.955V250.561H426.951C427.854 250.561 428.574 250.684 429.113 250.93C429.664 251.176 429.939 251.715 429.939 252.547C429.939 253.227 429.717 253.725 429.271 254.041C428.826 254.346 428.158 254.498 427.268 254.498H426.195V257.768C426.195 258.67 425.996 259.344 425.598 259.789C425.199 260.223 424.666 260.439 423.998 260.439C423.342 260.439 422.809 260.217 422.398 259.771C422 259.314 421.801 258.646 421.801 257.768ZM414.242 250.561H421.801V240.348L414.242 250.561ZM438.676 236.955V245.99L448.924 235.303C449.416 234.787 449.832 234.406 450.172 234.16C450.523 233.914 450.986 233.791 451.561 233.791C452.311 233.791 452.914 234.014 453.371 234.459C453.84 234.893 454.074 235.426 454.074 236.059C454.074 236.82 453.682 237.576 452.896 238.326L446.551 244.338L453.863 254.814C454.379 255.541 454.766 256.18 455.023 256.73C455.281 257.27 455.41 257.797 455.41 258.312C455.41 258.887 455.182 259.385 454.725 259.807C454.279 260.229 453.67 260.439 452.896 260.439C452.17 260.439 451.578 260.287 451.121 259.982C450.664 259.666 450.277 259.25 449.961 258.734C449.645 258.219 449.363 257.75 449.117 257.328L442.947 247.836L438.676 251.932V257.258C438.676 258.336 438.43 259.139 437.938 259.666C437.445 260.182 436.812 260.439 436.039 260.439C435.594 260.439 435.166 260.322 434.756 260.088C434.346 259.854 434.029 259.537 433.807 259.139C433.643 258.811 433.543 258.43 433.508 257.996C433.473 257.562 433.455 256.936 433.455 256.115V236.955C433.455 235.9 433.684 235.109 434.141 234.582C434.609 234.055 435.242 233.791 436.039 233.791C436.824 233.791 437.457 234.055 437.938 234.582C438.43 235.098 438.676 235.889 438.676 236.955ZM472.883 237.219L478.719 254.498L484.572 237.096C484.877 236.182 485.105 235.549 485.258 235.197C485.41 234.834 485.662 234.512 486.014 234.23C486.365 233.938 486.846 233.791 487.455 233.791C487.9 233.791 488.311 233.902 488.686 234.125C489.072 234.348 489.371 234.646 489.582 235.021C489.805 235.385 489.916 235.754 489.916 236.129C489.916 236.387 489.881 236.668 489.811 236.973C489.74 237.266 489.652 237.559 489.547 237.852C489.441 238.133 489.336 238.426 489.23 238.73L482.99 255.57C482.768 256.215 482.545 256.83 482.322 257.416C482.1 257.99 481.842 258.5 481.549 258.945C481.256 259.379 480.863 259.736 480.371 260.018C479.891 260.299 479.299 260.439 478.596 260.439C477.893 260.439 477.295 260.299 476.803 260.018C476.322 259.748 475.93 259.391 475.625 258.945C475.332 258.488 475.074 257.973 474.852 257.398C474.629 256.824 474.406 256.215 474.184 255.57L468.049 238.871C467.943 238.566 467.832 238.268 467.715 237.975C467.609 237.682 467.516 237.365 467.434 237.025C467.363 236.686 467.328 236.398 467.328 236.164C467.328 235.566 467.568 235.021 468.049 234.529C468.529 234.037 469.133 233.791 469.859 233.791C470.75 233.791 471.377 234.066 471.74 234.617C472.115 235.156 472.496 236.023 472.883 237.219ZM497.826 243.652V257.521C497.826 258.482 497.598 259.209 497.141 259.701C496.684 260.193 496.104 260.439 495.4 260.439C494.697 260.439 494.123 260.188 493.678 259.684C493.244 259.18 493.027 258.459 493.027 257.521V243.793C493.027 242.844 493.244 242.129 493.678 241.648C494.123 241.168 494.697 240.928 495.4 240.928C496.104 240.928 496.684 241.168 497.141 241.648C497.598 242.129 497.826 242.797 497.826 243.652ZM495.453 238.695C494.785 238.695 494.211 238.49 493.73 238.08C493.262 237.67 493.027 237.09 493.027 236.34C493.027 235.66 493.268 235.104 493.748 234.67C494.24 234.225 494.809 234.002 495.453 234.002C496.074 234.002 496.625 234.201 497.105 234.6C497.586 234.998 497.826 235.578 497.826 236.34C497.826 237.078 497.592 237.658 497.123 238.08C496.654 238.49 496.098 238.695 495.453 238.695ZM515.949 257.697V257.223C515.305 257.961 514.666 258.564 514.033 259.033C513.412 259.49 512.732 259.836 511.994 260.07C511.268 260.316 510.471 260.439 509.604 260.439C508.455 260.439 507.389 260.199 506.404 259.719C505.432 259.227 504.588 258.529 503.873 257.627C503.158 256.725 502.613 255.664 502.238 254.445C501.875 253.227 501.693 251.908 501.693 250.49C501.693 247.49 502.426 245.152 503.891 243.477C505.355 241.801 507.283 240.963 509.674 240.963C511.057 240.963 512.223 241.203 513.172 241.684C514.121 242.152 515.047 242.879 515.949 243.863V236.779C515.949 235.795 516.143 235.051 516.529 234.547C516.928 234.043 517.49 233.791 518.217 233.791C518.943 233.791 519.5 234.025 519.887 234.494C520.285 234.951 520.484 235.631 520.484 236.533V257.697C520.484 258.611 520.273 259.297 519.852 259.754C519.43 260.211 518.885 260.439 518.217 260.439C517.561 260.439 517.016 260.205 516.582 259.736C516.16 259.256 515.949 258.576 515.949 257.697ZM506.51 250.648C506.51 251.949 506.709 253.057 507.107 253.971C507.518 254.885 508.074 255.576 508.777 256.045C509.48 256.502 510.248 256.73 511.08 256.73C511.924 256.73 512.691 256.514 513.383 256.08C514.086 255.635 514.643 254.961 515.053 254.059C515.475 253.145 515.686 252.008 515.686 250.648C515.686 249.371 515.475 248.275 515.053 247.361C514.643 246.436 514.08 245.732 513.365 245.252C512.662 244.76 511.889 244.514 511.045 244.514C510.166 244.514 509.381 244.766 508.689 245.27C507.998 245.762 507.459 246.477 507.072 247.414C506.697 248.34 506.51 249.418 506.51 250.648ZM538.695 251.861H529.309C529.32 252.951 529.537 253.912 529.959 254.744C530.393 255.576 530.961 256.203 531.664 256.625C532.379 257.047 533.164 257.258 534.02 257.258C534.594 257.258 535.115 257.193 535.584 257.064C536.064 256.924 536.527 256.713 536.973 256.432C537.418 256.139 537.828 255.828 538.203 255.5C538.578 255.172 539.064 254.727 539.662 254.164C539.908 253.953 540.26 253.848 540.717 253.848C541.209 253.848 541.607 253.982 541.912 254.252C542.217 254.521 542.369 254.902 542.369 255.395C542.369 255.828 542.199 256.338 541.859 256.924C541.52 257.498 541.004 258.055 540.312 258.594C539.633 259.121 538.771 259.561 537.729 259.912C536.697 260.264 535.508 260.439 534.16 260.439C531.078 260.439 528.682 259.561 526.971 257.803C525.26 256.045 524.404 253.66 524.404 250.648C524.404 249.23 524.615 247.918 525.037 246.711C525.459 245.492 526.074 244.449 526.883 243.582C527.691 242.715 528.688 242.053 529.871 241.596C531.055 241.127 532.367 240.893 533.809 240.893C535.684 240.893 537.289 241.291 538.625 242.088C539.973 242.873 540.98 243.893 541.648 245.146C542.316 246.4 542.65 247.678 542.65 248.979C542.65 250.186 542.305 250.971 541.613 251.334C540.922 251.686 539.949 251.861 538.695 251.861ZM529.309 249.137H538.01C537.893 247.496 537.447 246.271 536.674 245.463C535.912 244.643 534.904 244.232 533.65 244.232C532.455 244.232 531.471 244.648 530.697 245.48C529.936 246.301 529.473 247.52 529.309 249.137ZM564.676 250.684C564.676 252.113 564.453 253.432 564.008 254.639C563.562 255.846 562.918 256.883 562.074 257.75C561.23 258.617 560.223 259.285 559.051 259.754C557.879 260.211 556.561 260.439 555.096 260.439C553.643 260.439 552.336 260.205 551.176 259.736C550.016 259.268 549.008 258.6 548.152 257.732C547.309 256.854 546.664 255.822 546.219 254.639C545.785 253.443 545.568 252.125 545.568 250.684C545.568 249.23 545.791 247.9 546.236 246.693C546.682 245.486 547.32 244.455 548.152 243.6C548.984 242.744 549.992 242.088 551.176 241.631C552.359 241.162 553.666 240.928 555.096 240.928C556.549 240.928 557.867 241.162 559.051 241.631C560.234 242.1 561.248 242.768 562.092 243.635C562.936 244.502 563.574 245.533 564.008 246.729C564.453 247.924 564.676 249.242 564.676 250.684ZM559.859 250.684C559.859 248.727 559.426 247.203 558.559 246.113C557.703 245.023 556.549 244.479 555.096 244.479C554.158 244.479 553.332 244.725 552.617 245.217C551.902 245.697 551.352 246.412 550.965 247.361C550.578 248.311 550.385 249.418 550.385 250.684C550.385 251.938 550.572 253.033 550.947 253.971C551.334 254.908 551.879 255.629 552.582 256.133C553.297 256.625 554.135 256.871 555.096 256.871C556.549 256.871 557.703 256.326 558.559 255.236C559.426 254.135 559.859 252.617 559.859 250.684ZM577.842 249.348V236.955C577.842 235.9 578.076 235.109 578.545 234.582C579.025 234.055 579.652 233.791 580.426 233.791C581.234 233.791 581.873 234.055 582.342 234.582C582.822 235.109 583.062 235.9 583.062 236.955V249.629C583.062 251.07 583.221 252.277 583.537 253.25C583.865 254.211 584.439 254.961 585.26 255.5C586.08 256.027 587.229 256.291 588.705 256.291C590.744 256.291 592.186 255.752 593.029 254.674C593.873 253.584 594.295 251.938 594.295 249.734V236.955C594.295 235.889 594.529 235.098 594.998 234.582C595.467 234.055 596.094 233.791 596.879 233.791C597.664 233.791 598.297 234.055 598.777 234.582C599.27 235.098 599.516 235.889 599.516 236.955V249.348C599.516 251.363 599.316 253.045 598.918 254.393C598.531 255.74 597.793 256.924 596.703 257.943C595.766 258.811 594.676 259.443 593.434 259.842C592.191 260.24 590.738 260.439 589.074 260.439C587.094 260.439 585.389 260.229 583.959 259.807C582.529 259.373 581.363 258.711 580.461 257.82C579.559 256.918 578.896 255.77 578.475 254.375C578.053 252.969 577.842 251.293 577.842 249.348ZM609.254 243.617V244.197C610.156 243.084 611.094 242.27 612.066 241.754C613.039 241.227 614.141 240.963 615.371 240.963C616.848 240.963 618.207 241.344 619.449 242.105C620.691 242.867 621.67 243.98 622.385 245.445C623.111 246.91 623.475 248.645 623.475 250.648C623.475 252.125 623.264 253.484 622.842 254.727C622.432 255.957 621.863 256.994 621.137 257.838C620.41 258.67 619.549 259.314 618.553 259.771C617.568 260.217 616.508 260.439 615.371 260.439C614 260.439 612.846 260.164 611.908 259.613C610.982 259.062 610.098 258.254 609.254 257.188V264.395C609.254 266.504 608.486 267.559 606.951 267.559C606.049 267.559 605.451 267.283 605.158 266.732C604.865 266.193 604.719 265.402 604.719 264.359V243.652C604.719 242.738 604.918 242.059 605.316 241.613C605.715 241.156 606.26 240.928 606.951 240.928C607.631 240.928 608.182 241.162 608.604 241.631C609.037 242.088 609.254 242.75 609.254 243.617ZM618.658 250.596C618.658 249.33 618.465 248.246 618.078 247.344C617.691 246.43 617.152 245.732 616.461 245.252C615.781 244.76 615.025 244.514 614.193 244.514C612.869 244.514 611.75 245.035 610.836 246.078C609.934 247.121 609.482 248.656 609.482 250.684C609.482 252.594 609.934 254.082 610.836 255.148C611.738 256.203 612.857 256.73 614.193 256.73C614.99 256.73 615.729 256.502 616.408 256.045C617.088 255.576 617.633 254.879 618.043 253.953C618.453 253.027 618.658 251.908 618.658 250.596ZM627.324 257.521V236.709C627.324 235.748 627.535 235.021 627.957 234.529C628.391 234.037 628.971 233.791 629.697 233.791C630.424 233.791 631.01 234.037 631.455 234.529C631.9 235.01 632.123 235.736 632.123 236.709V257.521C632.123 258.494 631.895 259.227 631.438 259.719C630.992 260.199 630.412 260.439 629.697 260.439C628.994 260.439 628.42 260.188 627.975 259.684C627.541 259.18 627.324 258.459 627.324 257.521ZM655.062 250.684C655.062 252.113 654.84 253.432 654.395 254.639C653.949 255.846 653.305 256.883 652.461 257.75C651.617 258.617 650.609 259.285 649.438 259.754C648.266 260.211 646.947 260.439 645.482 260.439C644.029 260.439 642.723 260.205 641.562 259.736C640.402 259.268 639.395 258.6 638.539 257.732C637.695 256.854 637.051 255.822 636.605 254.639C636.172 253.443 635.955 252.125 635.955 250.684C635.955 249.23 636.178 247.9 636.623 246.693C637.068 245.486 637.707 244.455 638.539 243.6C639.371 242.744 640.379 242.088 641.562 241.631C642.746 241.162 644.053 240.928 645.482 240.928C646.936 240.928 648.254 241.162 649.438 241.631C650.621 242.1 651.635 242.768 652.479 243.635C653.322 244.502 653.961 245.533 654.395 246.729C654.84 247.924 655.062 249.242 655.062 250.684ZM650.246 250.684C650.246 248.727 649.812 247.203 648.945 246.113C648.09 245.023 646.936 244.479 645.482 244.479C644.545 244.479 643.719 244.725 643.004 245.217C642.289 245.697 641.738 246.412 641.352 247.361C640.965 248.311 640.771 249.418 640.771 250.684C640.771 251.938 640.959 253.033 641.334 253.971C641.721 254.908 642.266 255.629 642.969 256.133C643.684 256.625 644.521 256.871 645.482 256.871C646.936 256.871 648.09 256.326 648.945 255.236C649.812 254.135 650.246 252.617 650.246 250.684ZM670.988 257.732C669.828 258.635 668.703 259.314 667.613 259.771C666.535 260.217 665.322 260.439 663.975 260.439C662.744 260.439 661.66 260.199 660.723 259.719C659.797 259.227 659.082 258.564 658.578 257.732C658.074 256.9 657.822 255.998 657.822 255.025C657.822 253.713 658.238 252.594 659.07 251.668C659.902 250.742 661.045 250.121 662.498 249.805C662.803 249.734 663.559 249.576 664.766 249.33C665.973 249.084 667.004 248.861 667.859 248.662C668.727 248.451 669.664 248.199 670.672 247.906C670.613 246.641 670.355 245.715 669.898 245.129C669.453 244.531 668.521 244.232 667.104 244.232C665.885 244.232 664.965 244.402 664.344 244.742C663.734 245.082 663.207 245.592 662.762 246.271C662.328 246.951 662.018 247.402 661.83 247.625C661.654 247.836 661.268 247.941 660.67 247.941C660.131 247.941 659.662 247.771 659.264 247.432C658.877 247.08 658.684 246.635 658.684 246.096C658.684 245.252 658.982 244.432 659.58 243.635C660.178 242.838 661.109 242.182 662.375 241.666C663.641 241.15 665.217 240.893 667.104 240.893C669.213 240.893 670.871 241.145 672.078 241.648C673.285 242.141 674.135 242.926 674.627 244.004C675.131 245.082 675.383 246.512 675.383 248.293C675.383 249.418 675.377 250.373 675.365 251.158C675.365 251.943 675.359 252.816 675.348 253.777C675.348 254.68 675.494 255.623 675.787 256.607C676.092 257.58 676.244 258.207 676.244 258.488C676.244 258.98 676.01 259.432 675.541 259.842C675.084 260.24 674.562 260.439 673.977 260.439C673.484 260.439 672.998 260.211 672.518 259.754C672.037 259.285 671.527 258.611 670.988 257.732ZM670.672 250.789C669.969 251.047 668.943 251.322 667.596 251.615C666.26 251.896 665.334 252.107 664.818 252.248C664.303 252.377 663.811 252.641 663.342 253.039C662.873 253.426 662.639 253.971 662.639 254.674C662.639 255.4 662.914 256.021 663.465 256.537C664.016 257.041 664.736 257.293 665.627 257.293C666.576 257.293 667.449 257.088 668.246 256.678C669.055 256.256 669.646 255.717 670.021 255.061C670.455 254.334 670.672 253.139 670.672 251.475V250.789ZM693.418 257.697V257.223C692.773 257.961 692.135 258.564 691.502 259.033C690.881 259.49 690.201 259.836 689.463 260.07C688.736 260.316 687.939 260.439 687.072 260.439C685.924 260.439 684.857 260.199 683.873 259.719C682.9 259.227 682.057 258.529 681.342 257.627C680.627 256.725 680.082 255.664 679.707 254.445C679.344 253.227 679.162 251.908 679.162 250.49C679.162 247.49 679.895 245.152 681.359 243.477C682.824 241.801 684.752 240.963 687.143 240.963C688.525 240.963 689.691 241.203 690.641 241.684C691.59 242.152 692.516 242.879 693.418 243.863V236.779C693.418 235.795 693.611 235.051 693.998 234.547C694.396 234.043 694.959 233.791 695.686 233.791C696.412 233.791 696.969 234.025 697.355 234.494C697.754 234.951 697.953 235.631 697.953 236.533V257.697C697.953 258.611 697.742 259.297 697.32 259.754C696.898 260.211 696.354 260.439 695.686 260.439C695.029 260.439 694.484 260.205 694.051 259.736C693.629 259.256 693.418 258.576 693.418 257.697ZM683.979 250.648C683.979 251.949 684.178 253.057 684.576 253.971C684.986 254.885 685.543 255.576 686.246 256.045C686.949 256.502 687.717 256.73 688.549 256.73C689.393 256.73 690.16 256.514 690.852 256.08C691.555 255.635 692.111 254.961 692.521 254.059C692.943 253.145 693.154 252.008 693.154 250.648C693.154 249.371 692.943 248.275 692.521 247.361C692.111 246.436 691.549 245.732 690.834 245.252C690.131 244.76 689.357 244.514 688.514 244.514C687.635 244.514 686.85 244.766 686.158 245.27C685.467 245.762 684.928 246.477 684.541 247.414C684.166 248.34 683.979 249.418 683.979 250.648ZM718.221 254.164C718.221 255.488 717.898 256.625 717.254 257.574C716.609 258.512 715.654 259.227 714.389 259.719C713.135 260.199 711.605 260.439 709.801 260.439C708.078 260.439 706.602 260.176 705.371 259.648C704.141 259.121 703.232 258.465 702.646 257.68C702.061 256.883 701.768 256.086 701.768 255.289C701.768 254.762 701.955 254.311 702.33 253.936C702.705 253.561 703.18 253.373 703.754 253.373C704.258 253.373 704.645 253.496 704.914 253.742C705.184 253.988 705.441 254.334 705.688 254.779C706.18 255.635 706.766 256.273 707.445 256.695C708.137 257.117 709.074 257.328 710.258 257.328C711.219 257.328 712.004 257.117 712.613 256.695C713.234 256.262 713.545 255.77 713.545 255.219C713.545 254.375 713.223 253.76 712.578 253.373C711.945 252.986 710.896 252.617 709.432 252.266C707.779 251.855 706.432 251.428 705.389 250.982C704.357 250.525 703.531 249.928 702.91 249.189C702.289 248.451 701.979 247.543 701.979 246.465C701.979 245.504 702.266 244.596 702.84 243.74C703.414 242.885 704.258 242.205 705.371 241.701C706.496 241.186 707.85 240.928 709.432 240.928C710.674 240.928 711.787 241.057 712.771 241.314C713.768 241.572 714.594 241.918 715.25 242.352C715.918 242.785 716.422 243.266 716.762 243.793C717.113 244.32 717.289 244.836 717.289 245.34C717.289 245.891 717.102 246.342 716.727 246.693C716.363 247.045 715.842 247.221 715.162 247.221C714.67 247.221 714.248 247.08 713.896 246.799C713.557 246.518 713.164 246.096 712.719 245.533C712.355 245.064 711.928 244.689 711.436 244.408C710.943 244.127 710.275 243.986 709.432 243.986C708.564 243.986 707.844 244.174 707.27 244.549C706.695 244.912 706.408 245.369 706.408 245.92C706.408 246.424 706.619 246.84 707.041 247.168C707.463 247.484 708.031 247.748 708.746 247.959C709.461 248.17 710.445 248.428 711.699 248.732C713.188 249.096 714.4 249.529 715.338 250.033C716.287 250.537 717.002 251.135 717.482 251.826C717.975 252.506 718.221 253.285 718.221 254.164Z" fill="black"/>
<path d="M385.938 163.493C387.087 164.317 387.345 165.903 386.509 167.038L365.937 194.952C365.495 195.555 364.812 195.928 364.056 195.991C363.301 196.055 362.57 195.777 362.039 195.254L351.753 185.103C350.749 184.111 350.749 182.502 351.753 181.51C352.758 180.519 354.389 180.519 355.394 181.51L363.55 189.56L382.354 164.048C383.19 162.914 384.797 162.66 385.946 163.485L385.938 163.493Z" fill="#00A708"/>
<path d="M416.553 173.219L422.389 190.498L428.242 173.096C428.547 172.182 428.775 171.549 428.928 171.197C429.08 170.834 429.332 170.512 429.684 170.23C430.035 169.938 430.516 169.791 431.125 169.791C431.57 169.791 431.98 169.902 432.355 170.125C432.742 170.348 433.041 170.646 433.252 171.021C433.475 171.385 433.586 171.754 433.586 172.129C433.586 172.387 433.551 172.668 433.48 172.973C433.41 173.266 433.322 173.559 433.217 173.852C433.111 174.133 433.006 174.426 432.9 174.73L426.66 191.57C426.438 192.215 426.215 192.83 425.992 193.416C425.77 193.99 425.512 194.5 425.219 194.945C424.926 195.379 424.533 195.736 424.041 196.018C423.561 196.299 422.969 196.439 422.266 196.439C421.562 196.439 420.965 196.299 420.473 196.018C419.992 195.748 419.6 195.391 419.295 194.945C419.002 194.488 418.744 193.973 418.521 193.398C418.299 192.824 418.076 192.215 417.854 191.57L411.719 174.871C411.613 174.566 411.502 174.268 411.385 173.975C411.279 173.682 411.186 173.365 411.104 173.025C411.033 172.686 410.998 172.398 410.998 172.164C410.998 171.566 411.238 171.021 411.719 170.529C412.199 170.037 412.803 169.791 413.529 169.791C414.42 169.791 415.047 170.066 415.41 170.617C415.785 171.156 416.166 172.023 416.553 173.219ZM447.525 185.963H442.744V193.258C442.744 194.301 442.498 195.092 442.006 195.631C441.514 196.17 440.893 196.439 440.143 196.439C439.357 196.439 438.725 196.176 438.244 195.648C437.764 195.109 437.523 194.324 437.523 193.293V173.43C437.523 172.281 437.787 171.461 438.314 170.969C438.842 170.477 439.68 170.23 440.828 170.23H447.525C449.506 170.23 451.029 170.383 452.096 170.688C453.15 170.98 454.059 171.467 454.82 172.146C455.594 172.826 456.18 173.658 456.578 174.643C456.977 175.627 457.176 176.734 457.176 177.965C457.176 180.59 456.367 182.582 454.75 183.941C453.133 185.289 450.725 185.963 447.525 185.963ZM446.26 174.15H442.744V182.025H446.26C447.49 182.025 448.516 181.896 449.336 181.639C450.168 181.381 450.801 180.959 451.234 180.373C451.668 179.787 451.885 179.02 451.885 178.07C451.885 176.934 451.551 176.008 450.883 175.293C450.133 174.531 448.592 174.15 446.26 174.15ZM468.338 172.92L478.375 188.107V172.779C478.375 171.783 478.586 171.039 479.008 170.547C479.441 170.043 480.021 169.791 480.748 169.791C481.498 169.791 482.09 170.043 482.523 170.547C482.957 171.039 483.174 171.783 483.174 172.779V193.047C483.174 195.309 482.236 196.439 480.361 196.439C479.893 196.439 479.471 196.369 479.096 196.229C478.721 196.1 478.369 195.889 478.041 195.596C477.713 195.303 477.408 194.963 477.127 194.576C476.846 194.178 476.564 193.773 476.283 193.363L466.492 178.352V193.451C466.492 194.436 466.264 195.18 465.807 195.684C465.35 196.188 464.764 196.439 464.049 196.439C463.311 196.439 462.719 196.188 462.273 195.684C461.828 195.168 461.605 194.424 461.605 193.451V173.57C461.605 172.727 461.699 172.064 461.887 171.584C462.109 171.057 462.479 170.629 462.994 170.301C463.51 169.961 464.066 169.791 464.664 169.791C465.133 169.791 465.531 169.867 465.859 170.02C466.199 170.172 466.492 170.377 466.738 170.635C466.996 170.893 467.254 171.227 467.512 171.637C467.781 172.047 468.057 172.475 468.338 172.92Z" fill="black"/>
</g>
<defs>
<linearGradient id="paint0_linear_2227_101" x1="249.5" y1="91.5" x2="33" y2="145.5" gradientUnits="userSpaceOnUse">
<stop stop-color="#FF01C3"/>
<stop offset="1" stop-color="#990175"/>
</linearGradient>
<clipPath id="clip0_2227_101">
<rect width="764" height="301" fill="white"/>
</clipPath>
</defs>
</svg>
