<svg width="400" height="175" viewBox="0 0 400 175" fill="none" xmlns="http://www.w3.org/2000/svg">
<g clip-path="url(#clip0_2226_16)">
<rect x="5" y="69" width="355" height="92" rx="20" fill="#0079A2"/>
<rect x="5" y="54" width="355" height="92" rx="20" fill="#00B4F0"/>
<path d="M133.84 97.168H125.617V91.6602C125.617 90.0586 125.526 89.0625 125.344 88.6719C125.174 88.2682 124.79 88.0664 124.191 88.0664C123.514 88.0664 123.085 88.3073 122.902 88.7891C122.72 89.2708 122.629 90.3125 122.629 91.9141V106.602C122.629 108.138 122.72 109.141 122.902 109.609C123.085 110.078 123.495 110.312 124.133 110.312C124.745 110.312 125.142 110.078 125.324 109.609C125.52 109.141 125.617 108.04 125.617 106.309V102.344H133.84V103.574C133.84 106.842 133.605 109.16 133.137 110.527C132.681 111.895 131.659 113.092 130.07 114.121C128.495 115.15 126.548 115.664 124.23 115.664C121.822 115.664 119.836 115.228 118.273 114.355C116.711 113.483 115.676 112.279 115.168 110.742C114.66 109.193 114.406 106.868 114.406 103.77V94.5312C114.406 92.2526 114.484 90.5469 114.641 89.4141C114.797 88.2682 115.259 87.168 116.027 86.1133C116.809 85.0586 117.883 84.2318 119.25 83.6328C120.63 83.0208 122.212 82.7148 123.996 82.7148C126.418 82.7148 128.417 83.1836 129.992 84.1211C131.568 85.0586 132.603 86.2305 133.098 87.6367C133.592 89.0299 133.84 91.2044 133.84 94.1602V97.168ZM154.406 98.1836V104.531C154.406 106.862 154.289 108.574 154.055 109.668C153.82 110.749 153.319 111.764 152.551 112.715C151.783 113.652 150.793 114.349 149.582 114.805C148.384 115.247 147.004 115.469 145.441 115.469C143.697 115.469 142.219 115.28 141.008 114.902C139.797 114.512 138.853 113.932 138.176 113.164C137.512 112.383 137.036 111.445 136.75 110.352C136.464 109.245 136.32 107.591 136.32 105.391V98.75C136.32 96.3411 136.581 94.4596 137.102 93.1055C137.622 91.7513 138.56 90.6641 139.914 89.8438C141.268 89.0234 143 88.6133 145.109 88.6133C146.88 88.6133 148.397 88.8802 149.66 89.4141C150.936 89.9349 151.919 90.6185 152.609 91.4648C153.299 92.3112 153.768 93.1836 154.016 94.082C154.276 94.9805 154.406 96.3477 154.406 98.1836ZM146.516 96.2305C146.516 94.9023 146.444 94.069 146.301 93.7305C146.158 93.3789 145.852 93.2031 145.383 93.2031C144.914 93.2031 144.602 93.3789 144.445 93.7305C144.289 94.069 144.211 94.9023 144.211 96.2305V107.93C144.211 109.154 144.289 109.954 144.445 110.332C144.602 110.697 144.908 110.879 145.363 110.879C145.832 110.879 146.138 110.71 146.281 110.371C146.438 110.033 146.516 109.303 146.516 108.184V96.2305ZM165.051 89.082L164.914 91.4648C165.487 90.5143 166.184 89.8047 167.004 89.3359C167.837 88.8542 168.794 88.6133 169.875 88.6133C171.229 88.6133 172.336 88.9323 173.195 89.5703C174.055 90.2083 174.608 91.0156 174.855 91.9922C175.103 92.9557 175.227 94.5703 175.227 96.8359V115H167.336V97.0508C167.336 95.2669 167.277 94.1797 167.16 93.7891C167.043 93.3984 166.717 93.2031 166.184 93.2031C165.624 93.2031 165.272 93.431 165.129 93.8867C164.986 94.3294 164.914 95.5273 164.914 97.4805V115H157.023V89.082H165.051ZM185.988 89.082L185.852 91.4648C186.424 90.5143 187.121 89.8047 187.941 89.3359C188.775 88.8542 189.732 88.6133 190.812 88.6133C192.167 88.6133 193.273 88.9323 194.133 89.5703C194.992 90.2083 195.546 91.0156 195.793 91.9922C196.04 92.9557 196.164 94.5703 196.164 96.8359V115H188.273V97.0508C188.273 95.2669 188.215 94.1797 188.098 93.7891C187.98 93.3984 187.655 93.2031 187.121 93.2031C186.561 93.2031 186.21 93.431 186.066 93.8867C185.923 94.3294 185.852 95.5273 185.852 97.4805V115H177.961V89.082H185.988ZM216.77 102.5H206.555V108.105C206.555 109.277 206.639 110.033 206.809 110.371C206.978 110.71 207.303 110.879 207.785 110.879C208.384 110.879 208.781 110.658 208.977 110.215C209.185 109.759 209.289 108.887 209.289 107.598V104.18H216.77V106.094C216.77 107.695 216.665 108.926 216.457 109.785C216.262 110.645 215.793 111.562 215.051 112.539C214.309 113.516 213.365 114.251 212.219 114.746C211.086 115.228 209.66 115.469 207.941 115.469C206.275 115.469 204.803 115.228 203.527 114.746C202.251 114.264 201.255 113.607 200.539 112.773C199.836 111.927 199.348 111.003 199.074 110C198.801 108.984 198.664 107.513 198.664 105.586V98.0273C198.664 95.7617 198.97 93.9779 199.582 92.6758C200.194 91.3607 201.197 90.3581 202.59 89.668C203.983 88.9648 205.585 88.6133 207.395 88.6133C209.608 88.6133 211.431 89.0365 212.863 89.8828C214.309 90.7161 215.318 91.8294 215.891 93.2227C216.477 94.6029 216.77 96.5495 216.77 99.0625V102.5ZM208.859 98.2812V96.3867C208.859 95.0456 208.788 94.1797 208.645 93.7891C208.501 93.3984 208.208 93.2031 207.766 93.2031C207.219 93.2031 206.88 93.3724 206.75 93.7109C206.62 94.0365 206.555 94.9284 206.555 96.3867V98.2812H208.859ZM236.809 98.8672H229.367V95.8789C229.367 94.8372 229.283 94.1341 229.113 93.7695C228.944 93.3919 228.632 93.2031 228.176 93.2031C227.72 93.2031 227.414 93.3659 227.258 93.6914C227.102 94.0169 227.023 94.7461 227.023 95.8789V108.105C227.023 109.03 227.141 109.727 227.375 110.195C227.609 110.651 227.954 110.879 228.41 110.879C228.944 110.879 229.302 110.638 229.484 110.156C229.68 109.674 229.777 108.763 229.777 107.422V104.336H236.809C236.796 106.406 236.717 107.962 236.574 109.004C236.444 110.033 236.008 111.094 235.266 112.188C234.536 113.268 233.579 114.089 232.395 114.648C231.21 115.195 229.745 115.469 228 115.469C225.773 115.469 224.009 115.091 222.707 114.336C221.405 113.568 220.48 112.5 219.934 111.133C219.4 109.753 219.133 107.799 219.133 105.273V97.9102C219.133 95.7096 219.354 94.0495 219.797 92.9297C220.24 91.8099 221.184 90.8138 222.629 89.9414C224.074 89.056 225.832 88.6133 227.902 88.6133C229.96 88.6133 231.717 89.0495 233.176 89.9219C234.634 90.7943 235.604 91.8945 236.086 93.2227C236.568 94.5508 236.809 96.4323 236.809 98.8672ZM247.492 85.625V89.707H249.621V93.8086H247.492V107.676C247.492 109.382 247.577 110.332 247.746 110.527C247.928 110.723 248.664 110.82 249.953 110.82V115H246.77C244.973 115 243.69 114.928 242.922 114.785C242.154 114.629 241.477 114.284 240.891 113.75C240.305 113.203 239.94 112.585 239.797 111.895C239.654 111.191 239.582 109.551 239.582 106.973V93.8086H237.883V89.707H239.582V85.625H247.492Z" fill="white"/>
<path d="M377.795 35.9639C371.178 29.2372 362.522 25.7678 353.781 25.5569C351.946 25.5126 350.49 23.9885 350.542 22.1611C350.594 20.3337 352.11 18.8706 353.938 18.9223C364.338 19.1613 374.661 23.305 382.531 31.3045C390.401 39.304 394.376 49.6942 394.452 60.1039C394.467 61.9392 392.986 63.4393 391.159 63.4464C389.331 63.4534 387.823 61.9803 387.816 60.1525C387.741 51.4018 384.413 42.6906 377.795 35.9639ZM352.024 43.8429C350.188 43.9454 348.629 42.5379 348.526 40.7019C348.424 38.8659 349.831 37.3065 351.667 37.204C358.086 36.86 364.637 39.1671 369.507 44.1178C374.378 49.0684 376.577 55.6563 376.129 62.0684C375.996 63.9025 374.407 65.2769 372.58 65.1519C370.753 65.0268 369.372 63.43 369.497 61.6032C369.82 57.0032 368.251 52.3144 364.771 48.7771C361.291 45.2399 356.629 43.5942 352.024 43.8429Z" fill="#00B4F0"/>
</g>
<defs>
<clipPath id="clip0_2226_16">
<rect width="400" height="175" fill="white"/>
</clipPath>
</defs>
</svg>
